<?xml version="1.0" encoding="UTF-8" standalone="no"?><!DOCTYPE svg PUBLIC "-//W3C//DTD SVG 1.1//EN" "http://www.w3.org/Graphics/SVG/1.1/DTD/svg11.dtd"><svg width="100%" height="100%" viewBox="0 0 2166 2500" version="1.1" xmlns="http://www.w3.org/2000/svg" xmlns:xlink="http://www.w3.org/1999/xlink" xml:space="preserve" xmlns:serif="http://www.serif.com/" style="fill-rule:evenodd;clip-rule:evenodd;stroke-linejoin:round;stroke-miterlimit:1.5;"><path id="Background-Hex" serif:id="Background Hex" d="M1082.53,0l-1082.53,625l0,1250l1082.53,625l1082.53,-625l-0,-1250l-1082.53,-625Z" style="fill:#f4f1f9;"/><path d="M1082.53,0l1082.53,625l-0,1250l-1082.53,625l-1082.53,-625l-0,-1250l1082.53,-625Zm-0,96.225c-0,0 -999.199,576.887 -999.199,576.888c0,223.989 0,1153.77 0,1153.78c0,-0 999.199,576.887 999.199,576.887c-0,-0 999.198,-576.888 999.198,-576.888c0,-223.989 0,-1153.77 0,-1153.78l-999.198,-576.887Z" style="fill:#4be1ce;"/><g id="Split-Network" serif:id="Split Network" opacity="0.75"><g id="Network-Background" serif:id="Network Background"><g><path d="M506.719,993.372l118.716,-101.802l-62.67,-90.619l107.831,-54.874l26.329,-195.51l125.043,-47.077l175.358,162.407l-67.08,125.191l249.099,-17.816l358.037,-211.998l-196.114,32.239l-123.573,-24.86l187.957,-153.717" style="fill:none;stroke:#353535;stroke-width:22.22px;"/><path d="M280.896,869.154l281.869,-68.203" style="fill:none;stroke:#353535;stroke-width:22.22px;"/><path d="M372.436,663.351l224.455,-75.122l100.034,-37.662" style="fill:none;stroke:#353535;stroke-width:22.22px;"/><path d="M740.467,362.854l214.443,34.906l94.213,-187.466l-58.273,286.72l106.212,-97.094l120.633,168.733l-220.369,97.244" style="fill:none;stroke:#353535;stroke-width:22.22px;"/><path d="M625.435,891.57l45.161,-145.493l320.254,-249.063" style="fill:none;stroke:#353535;stroke-width:22.22px;"/><path d="M1341.27,593.513l-350.418,-96.499" style="fill:none;stroke:#353535;stroke-width:22.22px;"/><path d="M546.45,761.408c21.394,-8.055 45.302,2.775 53.357,24.169c8.054,21.394 -2.776,45.303 -24.17,53.357c-21.394,8.055 -45.302,-2.775 -53.357,-24.169c-8.054,-21.394 2.775,-45.303 24.17,-53.357Z" style="fill:#fff;"/><path d="M546.45,761.408c21.394,-8.055 45.302,2.775 53.357,24.169c8.054,21.394 -2.776,45.303 -24.17,53.357c-21.394,8.055 -45.302,-2.775 -53.357,-24.169c-8.054,-21.394 2.775,-45.303 24.17,-53.357Zm3.914,10.398c-15.654,5.894 -23.579,23.389 -17.685,39.044c5.894,15.655 23.389,23.58 39.044,17.686c15.654,-5.894 23.579,-23.389 17.685,-39.044c-5.894,-15.655 -23.389,-23.58 -39.044,-17.686Z" style="fill:#4be1ce;"/><path d="M724.152,323.311c21.394,-8.055 45.302,2.775 53.357,24.169c8.054,21.394 -2.775,45.303 -24.17,53.357c-21.394,8.055 -45.302,-2.775 -53.357,-24.169c-8.054,-21.394 2.776,-45.303 24.17,-53.357Z" style="fill:#fff;"/><path d="M724.152,323.311c21.394,-8.055 45.302,2.775 53.357,24.169c8.054,21.394 -2.775,45.303 -24.17,53.357c-21.394,8.055 -45.302,-2.775 -53.357,-24.169c-8.054,-21.394 2.776,-45.303 24.17,-53.357Zm3.915,10.398c-15.655,5.894 -23.58,23.389 -17.686,39.044c5.894,15.655 23.389,23.58 39.044,17.686c15.654,-5.894 23.579,-23.389 17.685,-39.044c-5.894,-15.655 -23.389,-23.58 -39.043,-17.686Z" style="fill:#4be1ce;"/><path d="M266.302,830.391c21.394,-8.055 45.303,2.775 53.357,24.169c8.055,21.394 -2.775,45.303 -24.169,53.357c-21.394,8.055 -45.303,-2.775 -53.357,-24.169c-8.055,-21.394 2.775,-45.303 24.169,-53.357Z" style="fill:#fff;"/><path d="M266.302,830.391c21.394,-8.055 45.303,2.775 53.357,24.169c8.055,21.394 -2.775,45.303 -24.169,53.357c-21.394,8.055 -45.303,-2.775 -53.357,-24.169c-8.055,-21.394 2.775,-45.303 24.169,-53.357Zm3.915,10.398c-15.655,5.894 -23.58,23.389 -17.686,39.044c5.894,15.655 23.389,23.58 39.044,17.686c15.655,-5.894 23.58,-23.389 17.686,-39.044c-5.894,-15.655 -23.389,-23.58 -39.044,-17.686Z" style="fill:#4be1ce;"/><path d="M1080.75,360.377c21.394,-8.055 45.303,2.775 53.357,24.169c8.055,21.394 -2.775,45.303 -24.169,53.357c-21.394,8.055 -45.302,-2.775 -53.357,-24.169c-8.055,-21.394 2.775,-45.303 24.169,-53.357Z" style="fill:#fff;"/><path d="M1080.75,360.377c21.394,-8.055 45.303,2.775 53.357,24.169c8.055,21.394 -2.775,45.303 -24.169,53.357c-21.394,8.055 -45.302,-2.775 -53.357,-24.169c-8.055,-21.394 2.775,-45.303 24.169,-53.357Zm3.915,10.398c-15.655,5.894 -23.579,23.389 -17.686,39.044c5.894,15.655 23.389,23.58 39.044,17.686c15.655,-5.894 23.58,-23.389 17.686,-39.044c-5.894,-15.655 -23.389,-23.579 -39.044,-17.686Z" style="fill:#4be1ce;"/><path d="M913.449,751.727c21.395,-8.055 45.303,2.775 53.358,24.169c8.054,21.394 -2.776,45.303 -24.17,53.357c-21.394,8.055 -45.302,-2.775 -53.357,-24.169c-8.054,-21.394 2.775,-45.303 24.169,-53.357Z" style="fill:#fff;"/><path d="M913.449,751.727c21.395,-8.055 45.303,2.775 53.358,24.169c8.054,21.394 -2.776,45.303 -24.17,53.357c-21.394,8.055 -45.302,-2.775 -53.357,-24.169c-8.054,-21.394 2.775,-45.303 24.169,-53.357Zm3.915,10.398c-15.654,5.894 -23.579,23.389 -17.685,39.044c5.894,15.655 23.389,23.58 39.043,17.686c15.655,-5.894 23.58,-23.389 17.686,-39.044c-5.894,-15.655 -23.389,-23.58 -39.044,-17.686Z" style="fill:#4be1ce;"/><path d="M491.647,947.65c25.88,-9.743 54.801,3.357 64.545,29.237c9.743,25.88 -3.358,54.802 -29.237,64.545c-25.88,9.744 -54.802,-3.357 -64.545,-29.237c-9.744,-25.88 3.357,-54.801 29.237,-64.545Z" style="fill:#4be1ce;"/><path d="M491.647,947.65c25.88,-9.743 54.801,3.357 64.545,29.237c9.743,25.88 -3.358,54.802 -29.237,64.545c-25.88,9.744 -54.802,-3.357 -64.545,-29.237c-9.744,-25.88 3.357,-54.801 29.237,-64.545Zm3.915,10.399c-20.141,7.582 -30.337,30.09 -22.754,50.231c7.583,20.141 30.091,30.337 50.232,22.754c20.14,-7.583 30.336,-30.091 22.753,-50.232c-7.583,-20.141 -30.091,-30.336 -50.231,-22.753Z" style="fill:#4be1ce;"/><path d="M1388,368.045c25.88,-9.744 54.801,3.357 64.545,29.237c9.743,25.88 -3.358,54.802 -29.237,64.545c-25.88,9.744 -54.802,-3.357 -64.545,-29.237c-9.744,-25.88 3.357,-54.802 29.237,-64.545Z" style="fill:#4be1ce;"/><path d="M1388,368.045c25.88,-9.744 54.801,3.357 64.545,29.237c9.743,25.88 -3.358,54.802 -29.237,64.545c-25.88,9.744 -54.802,-3.357 -64.545,-29.237c-9.744,-25.88 3.357,-54.802 29.237,-64.545Zm3.915,10.398c-20.141,7.583 -30.337,30.091 -22.754,50.232c7.583,20.141 30.091,30.336 50.232,22.754c20.14,-7.583 30.336,-30.091 22.753,-50.232c-7.583,-20.141 -30.091,-30.336 -50.231,-22.754Z" style="fill:#4be1ce;"/><path d="M354.782,616.46c25.88,-9.744 54.801,3.357 64.545,29.237c9.743,25.88 -3.357,54.801 -29.237,64.545c-25.88,9.743 -54.802,-3.358 -64.545,-29.237c-9.744,-25.88 3.357,-54.802 29.237,-64.545Z" style="fill:#4be1ce;"/><path d="M354.782,616.46c25.88,-9.744 54.801,3.357 64.545,29.237c9.743,25.88 -3.357,54.801 -29.237,64.545c-25.88,9.743 -54.802,-3.358 -64.545,-29.237c-9.744,-25.88 3.357,-54.802 29.237,-64.545Zm3.915,10.398c-20.141,7.583 -30.336,30.091 -22.754,50.232c7.583,20.14 30.091,30.336 50.232,22.753c20.141,-7.583 30.336,-30.091 22.753,-50.231c-7.582,-20.141 -30.09,-30.337 -50.231,-22.754Z" style="fill:#4be1ce;"/><path d="M1202.62,522.932c25.88,-9.744 54.802,3.357 64.545,29.237c9.744,25.88 -3.357,54.801 -29.237,64.545c-25.88,9.743 -54.801,-3.357 -64.545,-29.237c-9.743,-25.88 3.357,-54.802 29.237,-64.545Z" style="fill:#4be1ce;"/><path d="M1202.62,522.932c25.88,-9.744 54.802,3.357 64.545,29.237c9.744,25.88 -3.357,54.801 -29.237,64.545c-25.88,9.743 -54.801,-3.357 -64.545,-29.237c-9.743,-25.88 3.357,-54.802 29.237,-64.545Zm3.915,10.398c-20.141,7.583 -30.336,30.091 -22.753,50.232c7.583,20.14 30.091,30.336 50.231,22.753c20.141,-7.583 30.337,-30.091 22.754,-50.231c-7.583,-20.141 -30.091,-30.337 -50.232,-22.754Z" style="fill:#4be1ce;"/><path d="M806.896,457.768c25.88,-9.743 54.801,3.357 64.545,29.237c9.743,25.88 -3.357,54.802 -29.237,64.545c-25.88,9.744 -54.802,-3.357 -64.545,-29.237c-9.744,-25.88 3.357,-54.801 29.237,-64.545Z" style="fill:#4be1ce;"/><path d="M806.896,457.768c25.88,-9.743 54.801,3.357 64.545,29.237c9.743,25.88 -3.357,54.802 -29.237,64.545c-25.88,9.744 -54.802,-3.357 -64.545,-29.237c-9.744,-25.88 3.357,-54.801 29.237,-64.545Zm3.915,10.399c-20.141,7.583 -30.336,30.091 -22.754,50.231c7.583,20.141 30.091,30.337 50.232,22.754c20.141,-7.583 30.336,-30.091 22.753,-50.232c-7.582,-20.141 -30.09,-30.336 -50.231,-22.753Z" style="fill:#4be1ce;"/><path d="M1326.2,547.791c25.88,-9.743 54.802,3.357 64.545,29.237c9.744,25.88 -3.357,54.802 -29.237,64.545c-25.88,9.744 -54.801,-3.357 -64.545,-29.237c-9.743,-25.88 3.357,-54.801 29.237,-64.545Z" style="fill:#4be1ce;"/><path d="M1326.2,547.791c25.88,-9.743 54.802,3.357 64.545,29.237c9.744,25.88 -3.357,54.802 -29.237,64.545c-25.88,9.744 -54.801,-3.357 -64.545,-29.237c-9.743,-25.88 3.357,-54.801 29.237,-64.545Zm3.915,10.399c-20.141,7.583 -30.336,30.091 -22.753,50.231c7.582,20.141 30.09,30.337 50.231,22.754c20.141,-7.583 30.337,-30.091 22.754,-50.232c-7.583,-20.14 -30.091,-30.336 -50.232,-22.753Z" style="fill:#4be1ce;"/><path d="M1174.16,707.376c25.88,-9.744 54.802,3.357 64.546,29.237c9.743,25.88 -3.358,54.802 -29.238,64.545c-25.879,9.744 -54.801,-3.357 -64.545,-29.237c-9.743,-25.88 3.358,-54.802 29.237,-64.545Z" style="fill:#4be1ce;"/><path d="M1174.16,707.376c25.88,-9.744 54.802,3.357 64.546,29.237c9.743,25.88 -3.358,54.802 -29.238,64.545c-25.879,9.744 -54.801,-3.357 -64.545,-29.237c-9.743,-25.88 3.358,-54.802 29.237,-64.545Zm3.915,10.398c-20.14,7.583 -30.336,30.091 -22.753,50.232c7.583,20.141 30.091,30.336 50.231,22.754c20.141,-7.583 30.337,-30.091 22.754,-50.232c-7.583,-20.141 -30.091,-30.336 -50.232,-22.754Z" style="fill:#4be1ce;"/><path d="M615.387,861.089c17.253,-6.496 36.534,2.238 43.03,19.491c6.496,17.253 -2.238,36.534 -19.491,43.03c-17.254,6.496 -36.535,-2.238 -43.03,-19.491c-6.496,-17.254 2.238,-36.535 19.491,-43.03Z" style="fill:#fff;"/><path d="M615.387,861.089c17.253,-6.496 36.534,2.238 43.03,19.491c6.496,17.253 -2.238,36.534 -19.491,43.03c-17.254,6.496 -36.535,-2.238 -43.03,-19.491c-6.496,-17.254 2.238,-36.535 19.491,-43.03Zm3.915,10.398c-11.514,4.335 -17.343,17.202 -13.008,28.717c4.335,11.514 17.203,17.342 28.717,13.007c11.514,-4.335 17.342,-17.202 13.007,-28.716c-4.334,-11.514 -17.202,-17.343 -28.716,-13.008Z" style="fill:#0d0d0d;"/><path d="M586.843,557.748c17.253,-6.496 36.534,2.238 43.03,19.491c6.495,17.253 -2.238,36.535 -19.492,43.03c-17.253,6.496 -36.534,-2.238 -43.03,-19.491c-6.495,-17.253 2.238,-36.535 19.492,-43.03Z" style="fill:#fff;"/><path d="M586.843,557.748c17.253,-6.496 36.534,2.238 43.03,19.491c6.495,17.253 -2.238,36.535 -19.492,43.03c-17.253,6.496 -36.534,-2.238 -43.03,-19.491c-6.495,-17.253 2.238,-36.535 19.492,-43.03Zm3.915,10.398c-11.514,4.335 -17.343,17.203 -13.008,28.717c4.335,11.514 17.202,17.343 28.716,13.008c11.515,-4.335 17.343,-17.203 13.008,-28.717c-4.335,-11.514 -17.202,-17.343 -28.716,-13.008Z" style="fill:#0d0d0d;"/><path d="M1525.61,530.013c17.253,-6.496 36.534,2.238 43.03,19.491c6.495,17.253 -2.239,36.535 -19.492,43.03c-17.253,6.496 -36.534,-2.238 -43.03,-19.491c-6.496,-17.253 2.238,-36.535 19.492,-43.03Z" style="fill:#fff;"/><path d="M1525.61,530.013c17.253,-6.496 36.534,2.238 43.03,19.491c6.495,17.253 -2.239,36.535 -19.492,43.03c-17.253,6.496 -36.534,-2.238 -43.03,-19.491c-6.496,-17.253 2.238,-36.535 19.492,-43.03Zm3.915,10.398c-11.515,4.335 -17.343,17.203 -13.008,28.717c4.335,11.514 17.202,17.343 28.716,13.008c11.514,-4.335 17.343,-17.203 13.008,-28.717c-4.335,-11.514 -17.202,-17.342 -28.716,-13.008Z" style="fill:#0d0d0d;"/><path d="M980.802,466.533c17.254,-6.496 36.535,2.238 43.03,19.492c6.496,17.253 -2.238,36.534 -19.491,43.03c-17.253,6.495 -36.534,-2.239 -43.03,-19.492c-6.496,-17.253 2.238,-36.534 19.491,-43.03Z" style="fill:#fff;"/><path d="M980.802,466.533c17.254,-6.496 36.535,2.238 43.03,19.492c6.496,17.253 -2.238,36.534 -19.491,43.03c-17.253,6.495 -36.534,-2.239 -43.03,-19.492c-6.496,-17.253 2.238,-36.534 19.491,-43.03Zm3.915,10.399c-11.514,4.335 -17.342,17.202 -13.008,28.716c4.335,11.514 17.203,17.343 28.717,13.008c11.514,-4.335 17.343,-17.202 13.008,-28.717c-4.335,-11.514 -17.203,-17.342 -28.717,-13.007Z" style="fill:#0d0d0d;"/><path d="M1037.35,179.033c17.253,-6.496 36.534,2.238 43.03,19.492c6.495,17.253 -2.238,36.534 -19.492,43.03c-17.253,6.495 -36.534,-2.239 -43.03,-19.492c-6.495,-17.253 2.238,-36.534 19.492,-43.03Z" style="fill:#fff;"/><path d="M1037.35,179.033c17.253,-6.496 36.534,2.238 43.03,19.492c6.495,17.253 -2.238,36.534 -19.492,43.03c-17.253,6.495 -36.534,-2.239 -43.03,-19.492c-6.495,-17.253 2.238,-36.534 19.492,-43.03Zm3.915,10.399c-11.515,4.335 -17.343,17.202 -13.008,28.716c4.335,11.514 17.202,17.343 28.716,13.008c11.515,-4.335 17.343,-17.202 13.008,-28.717c-4.335,-11.514 -17.202,-17.342 -28.716,-13.007Z" style="fill:#0d0d0d;"/><path d="M662.431,720.598c14.492,-5.457 30.688,1.88 36.145,16.372c5.456,14.493 -1.88,30.689 -16.373,36.146c-14.493,5.456 -30.689,-1.88 -36.145,-16.373c-5.457,-14.493 1.88,-30.689 16.373,-36.145Z" style="fill:#4be1ce;"/><path d="M662.431,720.598c14.492,-5.457 30.688,1.88 36.145,16.372c5.456,14.493 -1.88,30.689 -16.373,36.146c-14.493,5.456 -30.689,-1.88 -36.145,-16.373c-5.457,-14.493 1.88,-30.689 16.373,-36.145Zm3.914,10.398c-8.753,3.296 -13.184,13.078 -9.889,21.832c3.296,8.753 13.078,13.185 21.832,9.889c8.754,-3.296 13.185,-13.078 9.889,-21.832c-3.295,-8.753 -13.078,-13.184 -21.832,-9.889Z" style="fill:#0d0d0d;"/><path d="M945.024,371.501c14.492,-5.457 30.688,1.88 36.145,16.372c5.456,14.493 -1.88,30.689 -16.373,36.146c-14.493,5.456 -30.689,-1.88 -36.145,-16.373c-5.457,-14.493 1.88,-30.689 16.373,-36.145Z" style="fill:#4be1ce;"/><path d="M945.024,371.501c14.492,-5.457 30.688,1.88 36.145,16.372c5.456,14.493 -1.88,30.689 -16.373,36.146c-14.493,5.456 -30.689,-1.88 -36.145,-16.373c-5.457,-14.493 1.88,-30.689 16.373,-36.145Zm3.915,10.398c-8.754,3.296 -13.185,13.078 -9.89,21.832c3.296,8.753 13.078,13.185 21.832,9.889c8.754,-3.296 13.185,-13.078 9.889,-21.832c-3.295,-8.753 -13.078,-13.185 -21.831,-9.889Z" style="fill:#0d0d0d;"/><path d="M989.161,640.417c14.493,-5.456 30.689,1.88 36.145,16.373c5.457,14.493 -1.88,30.689 -16.373,36.145c-14.492,5.457 -30.688,-1.88 -36.145,-16.373c-5.456,-14.492 1.88,-30.688 16.373,-36.145Z" style="fill:#4be1ce;"/><path d="M989.161,640.417c14.493,-5.456 30.689,1.88 36.145,16.373c5.457,14.493 -1.88,30.689 -16.373,36.145c-14.492,5.457 -30.688,-1.88 -36.145,-16.373c-5.456,-14.492 1.88,-30.688 16.373,-36.145Zm3.915,10.399c-8.754,3.295 -13.185,13.078 -9.889,21.832c3.295,8.753 13.078,13.184 21.831,9.889c8.754,-3.296 13.185,-13.078 9.89,-21.832c-3.296,-8.754 -13.078,-13.185 -21.832,-9.889Z" style="fill:#0d0d0d;"/><path d="M688.76,525.088c14.493,-5.457 30.689,1.88 36.145,16.372c5.457,14.493 -1.88,30.689 -16.372,36.146c-14.493,5.456 -30.689,-1.88 -36.146,-16.373c-5.456,-14.493 1.88,-30.689 16.373,-36.145Z" style="fill:#4be1ce;"/><path d="M688.76,525.088c14.493,-5.457 30.689,1.88 36.145,16.372c5.457,14.493 -1.88,30.689 -16.372,36.146c-14.493,5.456 -30.689,-1.88 -36.146,-16.373c-5.456,-14.493 1.88,-30.689 16.373,-36.145Zm3.915,10.398c-8.754,3.296 -13.185,13.078 -9.889,21.832c3.296,8.754 13.078,13.185 21.832,9.889c8.753,-3.295 13.184,-13.078 9.889,-21.832c-3.296,-8.753 -13.078,-13.184 -21.832,-9.889Z" style="fill:#0d0d0d;"/></g></g><g id="Network-Background1" serif:id="Network Background"><g><path d="M422.549,1810.76l378.568,32.99l-20.12,108.326l120.843,5.966l-0,177.788l105.249,-67.1l132.109,48.759l93.585,-219.928l-112.42,-86.801" style="fill:none;stroke:#353535;stroke-width:22.22px;"/><path d="M644.549,2081.62l136.448,-129.552" style="fill:none;stroke:#353535;stroke-width:22.22px;"/><path d="M594.444,1925.11l304.705,207.119l79.881,106.924" style="fill:none;stroke:#353535;stroke-width:22.22px;"/><path d="M1122.35,2279.16l180.153,-118.153l-6.552,-106.689l136.636,45.155l280.804,-238.606l-280.804,89.216l-199.807,-52.521" style="fill:none;stroke:#353535;stroke-width:22.22px;"/><path d="M801.117,1843.75l100.723,114.292l394.114,96.275" style="fill:none;stroke:#353535;stroke-width:22.22px;"/><path d="M782.283,1994.83c22.818,-1.401 40.205,-21.063 38.803,-43.88c-1.401,-22.817 -21.063,-40.204 -43.88,-38.803c-22.817,1.401 -40.204,21.063 -38.803,43.88c1.401,22.817 21.063,40.204 43.88,38.803Z" style="fill:#fff;"/><path d="M782.283,1994.83c-22.817,1.401 -42.479,-15.986 -43.88,-38.803c-1.401,-22.817 15.986,-42.479 38.803,-43.88c22.817,-1.401 42.479,15.986 43.88,38.803c1.402,22.817 -15.985,42.479 -38.803,43.88Zm-0.681,-11.09c16.697,-1.025 29.419,-15.413 28.394,-32.109c-1.025,-16.696 -15.413,-29.419 -32.109,-28.394c-16.696,1.026 -29.419,15.413 -28.394,32.109c1.026,16.697 15.413,29.419 32.109,28.394Z" style="fill:#4be1ce;"/><path d="M1123.64,2321.91c22.817,-1.401 40.204,-21.063 38.803,-43.881c-1.401,-22.817 -21.064,-40.204 -43.881,-38.803c-22.817,1.402 -40.204,21.064 -38.803,43.881c1.402,22.817 21.064,40.204 43.881,38.803Z" style="fill:#fff;"/><path d="M1123.64,2321.91c-22.817,1.401 -42.479,-15.986 -43.881,-38.803c-1.401,-22.817 15.986,-42.479 38.803,-43.881c22.817,-1.401 42.48,15.986 43.881,38.803c1.401,22.818 -15.986,42.48 -38.803,43.881Zm-0.681,-11.09c16.696,-1.026 29.419,-15.413 28.393,-32.11c-1.025,-16.696 -15.412,-29.419 -32.109,-28.393c-16.696,1.025 -29.419,15.413 -28.393,32.109c1.025,16.696 15.412,29.419 32.109,28.394Z" style="fill:#4be1ce;"/><path d="M647.088,2115.28c22.817,-1.401 40.204,-21.063 38.803,-43.88c-1.401,-22.817 -21.063,-40.204 -43.88,-38.803c-22.817,1.401 -40.204,21.063 -38.803,43.88c1.401,22.817 21.063,40.204 43.88,38.803Z" style="fill:#fff;"/><path d="M647.088,2115.28c-22.817,1.401 -42.479,-15.986 -43.88,-38.803c-1.401,-22.817 15.986,-42.479 38.803,-43.88c22.817,-1.401 42.479,15.986 43.88,38.803c1.401,22.817 -15.986,42.479 -38.803,43.88Zm-0.681,-11.09c16.696,-1.025 29.419,-15.413 28.394,-32.109c-1.025,-16.696 -15.413,-29.419 -32.109,-28.394c-16.697,1.025 -29.419,15.413 -28.394,32.109c1.025,16.696 15.413,29.419 32.109,28.394Z" style="fill:#4be1ce;"/><path d="M1433.88,2142.23c22.817,-1.402 40.204,-21.064 38.803,-43.881c-1.401,-22.817 -21.063,-40.204 -43.88,-38.803c-22.817,1.401 -40.204,21.063 -38.803,43.881c1.401,22.817 21.063,40.204 43.88,38.803Z" style="fill:#fff;"/><path d="M1433.88,2142.23c-22.817,1.401 -42.479,-15.986 -43.88,-38.803c-1.401,-22.818 15.986,-42.48 38.803,-43.881c22.817,-1.401 42.479,15.986 43.88,38.803c1.401,22.817 -15.986,42.479 -38.803,43.881Zm-0.681,-11.091c16.696,-1.025 29.419,-15.413 28.394,-32.109c-1.025,-16.696 -15.413,-29.419 -32.109,-28.394c-16.696,1.026 -29.419,15.413 -28.394,32.109c1.025,16.697 15.413,29.419 32.109,28.394Z" style="fill:#4be1ce;"/><path d="M1121.14,1853.55c22.818,-1.401 40.205,-21.063 38.803,-43.88c-1.401,-22.818 -21.063,-40.205 -43.88,-38.803c-22.817,1.401 -40.204,21.063 -38.803,43.88c1.401,22.817 21.063,40.204 43.88,38.803Z" style="fill:#fff;"/><path d="M1121.14,1853.55c-22.817,1.401 -42.479,-15.986 -43.88,-38.803c-1.401,-22.817 15.986,-42.479 38.803,-43.88c22.817,-1.402 42.479,15.985 43.88,38.803c1.402,22.817 -15.985,42.479 -38.803,43.88Zm-0.681,-11.09c16.697,-1.026 29.42,-15.413 28.394,-32.109c-1.025,-16.697 -15.413,-29.419 -32.109,-28.394c-16.696,1.025 -29.419,15.413 -28.394,32.109c1.026,16.696 15.413,29.419 32.109,28.394Z" style="fill:#4be1ce;"/><path d="M425.62,1860.77c27.601,-1.695 48.634,-25.479 46.939,-53.081c-1.695,-27.601 -25.48,-48.634 -53.081,-46.939c-27.601,1.695 -48.634,25.48 -46.939,53.081c1.695,27.601 25.48,48.634 53.081,46.939Z" style="fill:#4be1ce;"/><path d="M425.62,1860.77c-27.601,1.695 -51.386,-19.338 -53.081,-46.939c-1.695,-27.601 19.338,-51.386 46.939,-53.081c27.601,-1.695 51.386,19.338 53.081,46.939c1.695,27.602 -19.338,51.386 -46.939,53.081Zm-0.681,-11.09c21.48,-1.319 37.849,-19.829 36.53,-41.31c-1.319,-21.48 -19.829,-37.849 -41.31,-36.53c-21.48,1.319 -37.849,19.83 -36.53,41.31c1.319,21.481 19.83,37.849 41.31,36.53Z" style="fill:#4be1ce;"/><path d="M597.515,1975.12c27.601,-1.695 48.634,-25.48 46.939,-53.081c-1.695,-27.602 -25.48,-48.634 -53.081,-46.939c-27.602,1.695 -48.634,25.479 -46.939,53.081c1.694,27.601 25.479,48.634 53.081,46.939Z" style="fill:#4be1ce;"/><path d="M597.515,1975.12c-27.602,1.695 -51.387,-19.338 -53.081,-46.939c-1.695,-27.602 19.337,-51.386 46.939,-53.081c27.601,-1.695 51.386,19.337 53.081,46.939c1.695,27.601 -19.338,51.386 -46.939,53.081Zm-0.681,-11.09c21.48,-1.32 37.848,-19.83 36.529,-41.31c-1.319,-21.481 -19.829,-37.849 -41.309,-36.53c-21.481,1.319 -37.849,19.829 -36.53,41.31c1.319,21.48 19.829,37.848 41.31,36.53Z" style="fill:#4be1ce;"/><path d="M1144.15,2165.37c27.602,-1.695 48.634,-25.479 46.939,-53.081c-1.695,-27.601 -25.479,-48.634 -53.081,-46.939c-27.601,1.695 -48.634,25.48 -46.939,53.081c1.695,27.602 25.48,48.634 53.081,46.939Z" style="fill:#4be1ce;"/><path d="M1144.15,2165.37c-27.601,1.695 -51.386,-19.337 -53.081,-46.939c-1.695,-27.601 19.338,-51.386 46.939,-53.081c27.602,-1.695 51.386,19.338 53.081,46.939c1.695,27.602 -19.337,51.386 -46.939,53.081Zm-0.681,-11.09c21.481,-1.319 37.849,-19.829 36.53,-41.31c-1.319,-21.48 -19.829,-37.849 -41.31,-36.53c-21.48,1.32 -37.849,19.83 -36.53,41.31c1.32,21.481 19.83,37.849 41.31,36.53Z" style="fill:#4be1ce;"/><path d="M804.416,1875.67c18.401,-1.13 32.423,-16.987 31.293,-35.388c-1.13,-18.4 -16.987,-32.422 -35.387,-31.292c-18.401,1.13 -32.423,16.986 -31.293,35.387c1.13,18.401 16.986,32.423 35.387,31.293Z" style="fill:#fff;"/><path d="M804.416,1875.67c-18.401,1.13 -34.257,-12.892 -35.387,-31.293c-1.13,-18.401 12.892,-34.257 31.293,-35.387c18.4,-1.13 34.257,12.892 35.387,31.292c1.13,18.401 -12.892,34.258 -31.293,35.388Zm-0.681,-11.09c12.28,-0.754 21.638,-11.337 20.884,-23.617c-0.754,-12.28 -11.336,-21.637 -23.616,-20.883c-12.28,0.754 -21.638,11.336 -20.884,23.616c0.754,12.28 11.336,21.638 23.616,20.884Z" style="fill:#0d0d0d;"/><path d="M902.448,2164.15c18.401,-1.13 32.423,-16.987 31.293,-35.388c-1.13,-18.401 -16.986,-32.422 -35.387,-31.292c-18.401,1.129 -32.423,16.986 -31.293,35.387c1.13,18.401 16.987,32.423 35.387,31.293Z" style="fill:#fff;"/><path d="M902.448,2164.15c-18.4,1.13 -34.257,-12.892 -35.387,-31.293c-1.13,-18.401 12.892,-34.258 31.293,-35.387c18.401,-1.13 34.257,12.891 35.387,31.292c1.13,18.401 -12.892,34.258 -31.293,35.388Zm-0.681,-11.091c12.28,-0.754 21.638,-11.336 20.884,-23.616c-0.754,-12.28 -11.336,-21.637 -23.616,-20.883c-12.28,0.754 -21.638,11.336 -20.884,23.616c0.754,12.28 11.336,21.637 23.616,20.883Z" style="fill:#0d0d0d;"/><path d="M969.256,2279.09c18.401,-1.13 32.423,-16.987 31.293,-35.388c-1.13,-18.4 -16.987,-32.422 -35.387,-31.292c-18.401,1.13 -32.423,16.986 -31.293,35.387c1.13,18.401 16.986,32.423 35.387,31.293Z" style="fill:#fff;"/><path d="M969.256,2279.09c-18.401,1.13 -34.257,-12.892 -35.387,-31.293c-1.13,-18.401 12.892,-34.257 31.293,-35.387c18.4,-1.13 34.257,12.892 35.387,31.292c1.13,18.401 -12.892,34.258 -31.293,35.388Zm-0.681,-11.09c12.28,-0.754 21.638,-11.336 20.884,-23.617c-0.754,-12.28 -11.336,-21.637 -23.616,-20.883c-12.28,0.754 -21.638,11.336 -20.884,23.616c0.754,12.28 11.336,21.638 23.616,20.884Z" style="fill:#0d0d0d;"/><path d="M1715.44,1894.2c18.401,-1.13 32.423,-16.987 31.293,-35.387c-1.13,-18.401 -16.986,-32.423 -35.387,-31.293c-18.401,1.13 -32.423,16.986 -31.293,35.387c1.13,18.401 16.986,32.423 35.387,31.293Z" style="fill:#fff;"/><path d="M1715.44,1894.2c-18.401,1.13 -34.257,-12.892 -35.387,-31.293c-1.13,-18.401 12.892,-34.257 31.293,-35.387c18.401,-1.13 34.257,12.892 35.387,31.293c1.13,18.4 -12.892,34.257 -31.293,35.387Zm-0.681,-11.09c12.28,-0.754 21.638,-11.336 20.884,-23.616c-0.754,-12.28 -11.336,-21.638 -23.616,-20.884c-12.28,0.754 -21.638,11.336 -20.884,23.616c0.754,12.28 11.336,21.638 23.616,20.884Z" style="fill:#0d0d0d;"/><path d="M1299.25,2086.24c18.401,-1.13 32.423,-16.986 31.293,-35.387c-1.13,-18.401 -16.986,-32.423 -35.387,-31.293c-18.401,1.13 -32.423,16.986 -31.293,35.387c1.13,18.401 16.986,32.423 35.387,31.293Z" style="fill:#fff;"/><path d="M1299.25,2086.24c-18.401,1.13 -34.257,-12.892 -35.387,-31.293c-1.13,-18.401 12.892,-34.257 31.293,-35.387c18.401,-1.13 34.257,12.892 35.387,31.293c1.13,18.401 -12.892,34.257 -31.293,35.387Zm-0.681,-11.09c12.28,-0.754 21.638,-11.336 20.884,-23.616c-0.754,-12.28 -11.336,-21.638 -23.616,-20.884c-12.28,0.754 -21.638,11.336 -20.884,23.616c0.754,12.28 11.336,21.638 23.616,20.884Z" style="fill:#0d0d0d;"/><path d="M904.811,1984.63c15.457,-0.949 27.235,-14.269 26.286,-29.725c-0.949,-15.457 -14.269,-27.235 -29.725,-26.286c-15.457,0.949 -27.236,14.268 -26.286,29.725c0.949,15.457 14.268,27.235 29.725,26.286Z" style="fill:#4be1ce;"/><path d="M904.811,1984.63c-15.457,0.949 -28.776,-10.829 -29.725,-26.286c-0.95,-15.457 10.829,-28.776 26.286,-29.725c15.456,-0.949 28.776,10.829 29.725,26.286c0.949,15.456 -10.829,28.776 -26.286,29.725Zm-0.681,-11.09c9.336,-0.573 16.45,-8.618 15.877,-17.954c-0.574,-9.336 -8.619,-16.45 -17.954,-15.877c-9.336,0.573 -16.45,8.618 -15.877,17.954c0.573,9.336 8.618,16.45 17.954,15.877Z" style="fill:#0d0d0d;"/><path d="M1305.48,2187.59c15.457,-0.949 27.235,-14.269 26.286,-29.726c-0.949,-15.456 -14.269,-27.235 -29.725,-26.286c-15.457,0.95 -27.235,14.269 -26.286,29.726c0.949,15.457 14.268,27.235 29.725,26.286Z" style="fill:#4be1ce;"/><path d="M1305.48,2187.59c-15.457,0.949 -28.776,-10.829 -29.725,-26.286c-0.949,-15.457 10.829,-28.776 26.286,-29.726c15.456,-0.949 28.776,10.83 29.725,26.286c0.949,15.457 -10.829,28.777 -26.286,29.726Zm-0.681,-11.09c9.336,-0.574 16.45,-8.619 15.877,-17.955c-0.574,-9.335 -8.619,-16.45 -17.954,-15.876c-9.336,0.573 -16.45,8.618 -15.877,17.954c0.573,9.336 8.618,16.45 17.954,15.877Z" style="fill:#0d0d0d;"/><path d="M1235.76,1924.15c15.456,-0.949 27.235,-14.269 26.286,-29.725c-0.95,-15.457 -14.269,-27.235 -29.726,-26.286c-15.457,0.949 -27.235,14.268 -26.286,29.725c0.949,15.457 14.269,27.235 29.726,26.286Z" style="fill:#4be1ce;"/><path d="M1235.76,1924.15c-15.457,0.949 -28.777,-10.829 -29.726,-26.286c-0.949,-15.457 10.829,-28.776 26.286,-29.725c15.457,-0.949 28.776,10.829 29.726,26.286c0.949,15.456 -10.83,28.776 -26.286,29.725Zm-0.681,-11.09c9.335,-0.573 16.45,-8.618 15.876,-17.954c-0.573,-9.336 -8.618,-16.45 -17.954,-15.877c-9.336,0.573 -16.45,8.618 -15.877,17.954c0.574,9.336 8.619,16.45 17.955,15.877Z" style="fill:#0d0d0d;"/><path d="M1008.81,2091.35c15.457,-0.949 27.235,-14.269 26.286,-29.725c-0.949,-15.457 -14.269,-27.235 -29.725,-26.286c-15.457,0.949 -27.235,14.268 -26.286,29.725c0.949,15.457 14.268,27.235 29.725,26.286Z" style="fill:#4be1ce;"/><path d="M1008.81,2091.35c-15.457,0.949 -28.776,-10.829 -29.725,-26.286c-0.949,-15.457 10.829,-28.776 26.286,-29.725c15.456,-0.949 28.776,10.829 29.725,26.286c0.949,15.456 -10.829,28.776 -26.286,29.725Zm-0.681,-11.09c9.336,-0.573 16.45,-8.618 15.877,-17.954c-0.574,-9.336 -8.619,-16.45 -17.954,-15.877c-9.336,0.573 -16.45,8.618 -15.877,17.954c0.573,9.336 8.618,16.45 17.954,15.877Z" style="fill:#0d0d0d;"/><path d="M1425.48,1978.08c15.456,-0.95 27.235,-14.269 26.286,-29.726c-0.95,-15.457 -14.269,-27.235 -29.726,-26.286c-15.457,0.949 -27.235,14.269 -26.286,29.726c0.949,15.456 14.269,27.235 29.726,26.286Z" style="fill:#4be1ce;"/><path d="M1425.48,1978.08c-15.457,0.949 -28.777,-10.83 -29.726,-26.286c-0.949,-15.457 10.829,-28.777 26.286,-29.726c15.457,-0.949 28.776,10.829 29.726,26.286c0.949,15.457 -10.83,28.776 -26.286,29.726Zm-0.681,-11.091c9.336,-0.573 16.45,-8.618 15.876,-17.954c-0.573,-9.336 -8.618,-16.45 -17.954,-15.876c-9.336,0.573 -16.45,8.618 -15.876,17.954c0.573,9.336 8.618,16.45 17.954,15.876Z" style="fill:#0d0d0d;"/></g></g></g><g id="Text-and-Dominos" serif:id="Text and Dominos"><g id="Text"><g><g><g id="Simple-custom" serif:id="Simple custom"><g><g id="_36" serif:id="36"><g id="Domino-Base" serif:id="Domino Base"><g><path d="M1969.92,915.073c0,0 -2.404,415.765 -3.77,413.644l-96.447,-176.26c-2.764,-4.29 -0,-431.718 -0,-431.718c-0,-6.714 100.217,194.334 100.217,194.334Z" style="fill:#595959;stroke:#131313;stroke-width:5.56px;stroke-linejoin:bevel;"/><path d="M1960,1111.15l-0,20.052l-90.468,-194.896l-0,-20.052l90.468,194.896Z" style="fill:#fff;"/></g><g><path d="M1930.02,699.798l100.9,195.557l-65.11,20.9l-96.03,-195.677l60.24,-20.78Z" style="fill:#333;stroke:#000;stroke-width:5.56px;"/><path d="M2030.92,895.355l0,412.195l-65.11,21.175l-0,-412.47l65.11,-20.9Z" style="fill:#262626;stroke:#000;stroke-width:5.56px;"/></g></g><g id="pip3"><path d="M1877.04,1139.73l0,-174.844l77.444,166.838l-0,174.844l-77.444,-166.838Z" style="fill:#595959;"/><g><g><path d="M1888.32,1103.11c-4.791,-10.32 -8.68,-6.991 -8.68,7.43c-0,14.422 3.889,34.509 8.68,44.83c4.791,10.321 8.68,6.992 8.68,-7.43c0,-14.421 -3.889,-34.509 -8.68,-44.83Z" style="fill:#fff;"/><path d="M1945.8,1116.02c-4.791,-10.321 -8.681,-6.992 -8.681,7.43c0,14.421 3.89,34.509 8.681,44.83c4.79,10.321 8.68,6.991 8.68,-7.43c-0,-14.422 -3.89,-34.509 -8.68,-44.83Z" style="fill:#fff;"/><path d="M1917.06,1109.56c-4.791,-10.321 -8.681,-6.991 -8.681,7.43c0,14.422 3.89,34.509 8.681,44.83c4.791,10.321 8.68,6.992 8.68,-7.43c0,-14.421 -3.889,-34.509 -8.68,-44.83Z" style="fill:#fff;"/></g></g></g><g id="pip6"><path d="M1877.04,920.732l0,-174.844l77.444,166.838l-0,174.844l-77.444,-166.838Z" style="fill:#595959;"/><g><g><g><g><path d="M1890.73,836.855c4.739,10.209 8.586,30.078 8.586,44.343c0,14.265 -3.847,17.558 -8.586,7.349c-4.739,-10.209 -8.586,-30.078 -8.586,-44.343c0,-14.265 3.847,-17.558 8.586,-7.349Z" style="fill:#fff;"/><path d="M1890.73,893.794c4.739,10.209 8.586,30.078 8.586,44.343c0,14.265 -3.847,17.558 -8.586,7.349c-4.739,-10.208 -8.586,-30.078 -8.586,-44.343c0,-14.264 3.847,-17.557 8.586,-7.349Z" style="fill:#fff;"/><path d="M1890.53,779.488c4.738,10.209 8.586,30.078 8.586,44.343c-0,14.265 -3.848,17.558 -8.586,7.349c-4.739,-10.208 -8.586,-30.078 -8.586,-44.343c-0,-14.264 3.847,-17.557 8.586,-7.349Z" style="fill:#fff;"/></g></g></g><g><g><g><path d="M1940.99,945.338c4.739,10.209 8.586,30.078 8.586,44.343c0,14.265 -3.847,17.558 -8.586,7.349c-4.738,-10.208 -8.586,-30.078 -8.586,-44.343c0,-14.264 3.848,-17.557 8.586,-7.349Z" style="fill:#fff;"/><path d="M1940.99,1002.28c4.739,10.208 8.586,30.078 8.586,44.343c0,14.264 -3.847,17.557 -8.586,7.349c-4.738,-10.209 -8.586,-30.078 -8.586,-44.343c0,-14.265 3.848,-17.558 8.586,-7.349Z" style="fill:#fff;"/><path d="M1940.79,887.972c4.739,10.208 8.586,30.078 8.586,44.343c-0,14.264 -3.847,17.557 -8.586,7.349c-4.739,-10.209 -8.586,-30.078 -8.586,-44.343c-0,-14.265 3.847,-17.558 8.586,-7.349Z" style="fill:#fff;"/></g></g></g></g></g></g><g id="_02" serif:id="02"><g id="Domino-Base1" serif:id="Domino Base"><g><path d="M1827.27,911.854c-0,-0 -38.632,413.972 -39.807,411.741l-80.719,-183.995c-2.379,-4.515 37.627,-430.075 37.627,-430.075c0.585,-6.689 82.899,202.329 82.899,202.329Z" style="fill:#595959;stroke:#131313;stroke-width:5.56px;stroke-linejoin:bevel;"/><path d="M1800.29,1106.32l-1.748,19.976l-73.137,-202.039l1.747,-19.976l73.138,202.039Z" style="fill:#fff;"/></g><g><path d="M1806.28,693.92l83.472,203.607l-66.684,15.145l-78.61,-203.302l61.822,-15.45Z" style="fill:#333;stroke:#000;stroke-width:5.56px;"/><path d="M1889.75,897.527l-35.925,410.626l-66.708,15.42l35.949,-410.901l66.684,-15.145Z" style="fill:#262626;stroke:#000;stroke-width:5.56px;"/></g></g><g id="pip2"><path d="M1713.81,1110.39l15.239,-174.178l62.608,172.953l-15.239,174.178l-62.608,-172.953Z" style="fill:#595959;"/><g><g><path d="M1729.9,1072.42c-4.514,-12.471 -9.369,-9 -10.834,7.745c-1.465,16.746 1.011,40.466 5.525,52.937c4.514,12.47 9.369,9 10.834,-7.746c1.465,-16.745 -1.011,-40.465 -5.525,-52.936Z" style="fill:#fff;"/></g><g><path d="M1780.53,1086.47c-4.514,-12.471 -9.369,-9 -10.834,7.746c-1.465,16.745 1.011,40.465 5.525,52.936c4.515,12.471 9.369,9 10.834,-7.746c1.465,-16.745 -1.011,-40.465 -5.525,-52.936Z" style="fill:#fff;"/></g></g></g></g><g id="_10" serif:id="10"><g id="Domino-Base2" serif:id="Domino Base"><g><path d="M1743.78,911.894c0,-0 -74.564,409.031 -75.541,406.705l-64.375,-190.33c-1.976,-4.705 74.967,-425.159 74.967,-425.159c1.166,-6.613 64.949,208.784 64.949,208.784Z" style="fill:#595959;stroke:#131313;stroke-width:5.56px;stroke-linejoin:bevel;"/><path d="M1699.96,1103.27l-3.482,19.748l-55.25,-207.645l3.482,-19.748l55.25,207.645Z" style="fill:#fff;"/></g><g><path d="M1741.86,692.961l65.41,210.107l-67.75,9.275l-60.593,-209.379l62.933,-10.003Z" style="fill:#333;stroke:#000;stroke-width:5.56px;"/><path d="M1807.27,903.068l-71.577,405.932l-67.798,9.548l71.625,-406.205l67.75,-9.275Z" style="fill:#262626;stroke:#000;stroke-width:5.56px;"/></g></g><g id="pip1"><path d="M1649.62,906.579l30.362,-172.188l47.296,177.752l-30.362,172.187l-47.296,-177.751Z" style="fill:#595959;"/><g><g><path d="M1693.74,879.358c3.411,12.821 3.81,36.673 0.891,53.232c-2.92,16.559 -8.06,19.594 -11.471,6.773c-3.411,-12.82 -3.811,-36.672 -0.891,-53.231c2.92,-16.559 8.06,-19.594 11.471,-6.774Z" style="fill:#fff;"/></g></g></g></g><g id="_52" serif:id="52"><g id="Domino-Base3" serif:id="Domino Base"><g><path d="M1642.86,921.729c0,0 -144.459,389.869 -145.017,387.409l-30.346,-198.617c-1.13,-4.977 147.656,-405.682 147.656,-405.682c2.296,-6.31 27.707,216.89 27.707,216.89Z" style="fill:#595959;stroke:#131313;stroke-width:5.56px;stroke-linejoin:bevel;"/><path d="M1566.48,1102.59l-6.858,18.843l-18.354,-214.085l6.858,-18.843l18.354,214.085Z" style="fill:#fff;"/></g><g><path d="M1678.99,705.79l27.931,218.273l-68.332,-2.63l-23.313,-216.721l63.714,1.078Z" style="fill:#333;stroke:#000;stroke-width:5.56px;"/><path d="M1706.92,924.063l-140.979,387.336l-68.426,-2.37l141.073,-387.596l68.332,2.63Z" style="fill:#262626;stroke:#000;stroke-width:5.56px;"/></g></g><g id="pip21" serif:id="pip2"><path d="M1485.04,1073.22l59.8,-164.299l15.711,183.263l-59.8,164.3l-15.711,-183.264Z" style="fill:#595959;"/><g><g><path d="M1510.41,1040.71c-1.133,-13.214 -6.72,-11.118 -12.469,4.678c-5.749,15.795 -9.497,39.348 -8.365,52.562c1.133,13.214 6.721,11.118 12.47,-4.677c5.749,-15.796 9.497,-39.349 8.364,-52.563Z" style="fill:#fff;"/></g><g><path d="M1555.68,1067.38c-1.133,-13.214 -6.721,-11.118 -12.47,4.678c-5.749,15.796 -9.497,39.348 -8.364,52.562c1.133,13.215 6.72,11.119 12.469,-4.677c5.75,-15.796 9.497,-39.348 8.365,-52.563Z" style="fill:#fff;"/></g></g></g><g id="pip5"><path d="M1554.33,882.836l59.8,-164.299l15.711,183.263l-59.8,164.3l-15.711,-183.264Z" style="fill:#595959;"/><g><g><path d="M1577.36,856.512c1.033,12.044 -2.383,33.51 -7.623,47.906c-5.24,14.397 -10.332,16.307 -11.365,4.263c-1.032,-12.043 2.384,-33.509 7.624,-47.905c5.239,-14.397 10.332,-16.307 11.364,-4.264Z" style="fill:#fff;"/><path d="M1615.45,751.72c1.033,12.044 -2.383,33.51 -7.623,47.906c-5.24,14.396 -10.332,16.306 -11.364,4.263c-1.033,-12.044 2.383,-33.509 7.623,-47.906c5.24,-14.396 10.332,-16.306 11.364,-4.263Z" style="fill:#fff;"/></g><g><path d="M1587.89,979.375c1.033,12.044 -2.383,33.509 -7.623,47.906c-5.24,14.396 -10.332,16.306 -11.365,4.263c-1.032,-12.044 2.384,-33.51 7.624,-47.906c5.24,-14.396 10.332,-16.307 11.364,-4.263Z" style="fill:#fff;"/><path d="M1625.99,874.583c1.033,12.043 -2.383,33.509 -7.623,47.905c-5.24,14.397 -10.332,16.307 -11.364,4.263c-1.033,-12.043 2.383,-33.509 7.623,-47.905c5.24,-14.397 10.332,-16.307 11.364,-4.263Z" style="fill:#fff;"/></g><path d="M1601.67,865.548c1.033,12.043 -2.383,33.509 -7.623,47.905c-5.24,14.397 -10.332,16.307 -11.365,4.263c-1.032,-12.043 2.384,-33.509 7.624,-47.905c5.24,-14.397 10.332,-16.307 11.364,-4.263Z" style="fill:#fff;"/></g></g></g><g id="_53" serif:id="53"><g id="Domino-Base4" serif:id="Domino Base"><g><path d="M1519.44,944.28c-0,0 -209.964,358.861 -210.087,356.342l4.604,-200.87c-0.248,-5.097 215.859,-373.879 215.859,-373.879c3.357,-5.815 -10.376,218.407 -10.376,218.407Z" style="fill:#595959;stroke:#131313;stroke-width:5.56px;stroke-linejoin:bevel;"/><path d="M1412.81,1109.13l-10.026,17.366l19.1,-214.019l10.027,-17.366l-19.101,214.019Z" style="fill:#fff;"/></g><g><path d="M1592.52,737.896l-10.396,219.807l-66.837,-14.456l14.674,-217.476l62.559,12.125Z" style="fill:#333;stroke:#000;stroke-width:5.56px;"/><path d="M1582.12,957.703l-206.097,356.971l-66.975,-14.216l206.235,-357.211l66.837,14.456Z" style="fill:#262626;stroke:#000;stroke-width:5.56px;"/></g></g><g id="pip31" serif:id="pip3"><path d="M1331.47,1090.86l87.422,-151.419l-16.351,183.208l-87.422,151.419l16.351,-183.208Z" style="fill:#595959;"/><g><g><path d="M1359.55,1064.79c1.011,-11.334 -4.022,-10.395 -11.232,2.094c-7.211,12.489 -13.887,31.831 -14.898,43.164c-1.012,11.334 4.021,10.395 11.232,-2.094c7.211,-12.49 13.886,-31.831 14.898,-43.164Z" style="fill:#fff;"/><path d="M1402.87,1104.71c1.012,-11.334 -4.021,-10.395 -11.232,2.094c-7.211,12.49 -13.886,31.831 -14.898,43.164c-1.011,11.334 4.022,10.395 11.232,-2.094c7.211,-12.489 13.887,-31.831 14.898,-43.164Z" style="fill:#fff;"/><path d="M1381.21,1084.75c1.012,-11.333 -4.021,-10.395 -11.232,2.095c-7.211,12.489 -13.886,31.83 -14.897,43.164c-1.012,11.333 4.021,10.395 11.232,-2.095c7.211,-12.489 13.886,-31.83 14.897,-43.164Z" style="fill:#fff;"/></g></g></g><g id="pip51" serif:id="pip5"><path d="M1439.05,904.521l87.422,-151.419l-16.351,183.207l-87.422,151.42l16.351,-183.208Z" style="fill:#595959;"/><g><g><path d="M1466.3,882.595c-1.075,12.04 -8.166,32.587 -15.826,45.854c-7.66,13.268 -13.007,14.265 -11.933,2.225c1.075,-12.04 8.166,-32.586 15.826,-45.854c7.661,-13.268 13.007,-14.265 11.933,-2.225Z" style="fill:#fff;"/><path d="M1522.01,786.011c-1.075,12.04 -8.166,32.586 -15.826,45.854c-7.66,13.268 -13.007,14.265 -11.932,2.225c1.074,-12.04 8.166,-32.587 15.826,-45.854c7.66,-13.268 13.007,-14.265 11.932,-2.225Z" style="fill:#fff;"/></g><g><path d="M1455.33,1005.42c-1.075,12.04 -8.166,32.587 -15.826,45.854c-7.66,13.268 -13.007,14.265 -11.932,2.225c1.074,-12.04 8.166,-32.586 15.826,-45.854c7.66,-13.268 13.006,-14.265 11.932,-2.225Z" style="fill:#fff;"/><path d="M1511.05,908.836c-1.074,12.04 -8.166,32.586 -15.826,45.854c-7.66,13.268 -13.007,14.265 -11.932,2.225c1.074,-12.04 8.166,-32.587 15.826,-45.854c7.66,-13.268 13.007,-14.265 11.932,-2.225Z" style="fill:#fff;"/></g><path d="M1488.67,895.716c-1.074,12.039 -8.165,32.586 -15.826,45.854c-7.66,13.267 -13.006,14.264 -11.932,2.224c1.075,-12.039 8.166,-32.586 15.826,-45.854c7.66,-13.267 13.007,-14.264 11.932,-2.224Z" style="fill:#fff;"/></g></g></g><g id="_21" serif:id="21"><g id="Domino-Base5" serif:id="Domino Base"><g><path d="M1362.61,1000.35c-0,-0 -295.69,292.29 -295.156,289.825l56.436,-192.834c1.079,-4.987 305.27,-305.27 305.27,-305.27c4.748,-4.748 -66.55,208.279 -66.55,208.279Z" style="fill:#595959;stroke:#131313;stroke-width:5.56px;stroke-linejoin:bevel;"/><path d="M1216.95,1131.98l-14.18,14.179l73.842,-201.783l14.18,-14.179l-73.842,201.783Z" style="fill:#fff;"/></g><g><path d="M1486.62,819.911l-66.932,209.627l-60.818,-31.261l70.461,-206.269l57.289,27.903Z" style="fill:#333;stroke:#000;stroke-width:5.56px;"/><path d="M1419.68,1029.54l-291.466,291.466l-61.013,-31.067l291.661,-291.66l60.818,31.261Z" style="fill:#262626;stroke:#000;stroke-width:5.56px;"/></g></g><g id="pip22" serif:id="pip2"><path d="M1285.39,939.05l123.634,-123.633l-63.211,172.733l-123.634,123.633l63.211,-172.733Z" style="fill:#595959;"/><g><g><path d="M1322.13,920.304c4.558,-12.455 -1.391,-12.916 -13.277,-1.03c-11.887,11.886 -25.237,31.648 -29.795,44.103c-4.558,12.455 1.392,12.916 13.278,1.03c11.886,-11.886 25.237,-31.648 29.794,-44.103Z" style="fill:#fff;"/></g><g><path d="M1351.88,963.611c4.558,-12.455 -1.392,-12.917 -13.278,-1.03c-11.886,11.886 -25.236,31.647 -29.794,44.102c-4.558,12.455 1.392,12.917 13.278,1.031c11.886,-11.886 25.236,-31.648 29.794,-44.103Z" style="fill:#fff;"/></g></g></g><g id="pip11" serif:id="pip1"><path d="M1147.56,1076.88l123.634,-123.633l-63.212,172.733l-123.633,123.634l63.211,-172.734Z" style="fill:#595959;"/><g><g><path d="M1199.32,1079.88c-4.559,12.459 -17.913,32.226 -29.802,44.115c-11.89,11.89 -17.841,11.428 -13.282,-1.031c4.559,-12.458 17.913,-32.225 29.803,-44.115c11.889,-11.889 17.841,-11.427 13.281,1.031Z" style="fill:#fff;"/></g></g></g></g><g id="_24" serif:id="24"><g id="Domino-Base6" serif:id="Domino Base"><g><path d="M1173.21,1079.58c-0,0 -361.265,205.801 -360.111,203.557l104.422,-171.656c2.333,-4.538 373.878,-215.859 373.878,-215.859c5.815,-3.357 -118.189,183.958 -118.189,183.958Z" style="fill:#595959;stroke:#131313;stroke-width:5.56px;stroke-linejoin:bevel;"/><path d="M998.441,1169.03l-17.366,10.026l123.551,-175.795l17.366,-10.027l-123.551,175.796Z" style="fill:#fff;"/></g><g><path d="M1339.69,937.385l-118.906,185.161l-50.655,-45.937l121.446,-181.003l48.115,41.779Z" style="fill:#333;stroke:#000;stroke-width:5.56px;"/><path d="M1220.79,1122.55l-356.971,206.098l-50.894,-45.8l357.21,-206.235l50.655,45.937Z" style="fill:#262626;stroke:#000;stroke-width:5.56px;"/></g></g><g id="pip23" serif:id="pip2"><path d="M929.926,1113.74l151.419,-87.422l-105.764,150.488l-151.42,87.422l105.765,-150.488Z" style="fill:#595959;"/><g><g><path d="M970.264,1105.14c7.627,-10.851 1.999,-12.837 -12.558,-4.432c-14.558,8.405 -32.568,24.038 -40.194,34.889c-7.626,10.851 -1.999,12.837 12.559,4.432c14.557,-8.405 32.567,-24.038 40.193,-34.889Z" style="fill:#fff;"/></g><g><path d="M987.795,1154.67c7.626,-10.851 1.999,-12.837 -12.559,-4.432c-14.557,8.405 -32.568,24.038 -40.194,34.889c-7.626,10.85 -1.998,12.836 12.559,4.432c14.557,-8.405 32.568,-24.038 40.194,-34.889Z" style="fill:#fff;"/></g></g></g><g id="pip4"><path d="M1119.83,1004.1l151.42,-87.422l-105.765,150.487l-151.419,87.422l105.764,-150.487Z" style="fill:#595959;"/><g><g><path d="M1152.76,1002.84c-6.255,8.9 -21.028,21.723 -32.968,28.617c-11.941,6.894 -16.556,5.265 -10.301,-3.635c6.255,-8.9 21.028,-21.723 32.968,-28.617c11.941,-6.894 16.557,-5.265 10.301,3.635Z" style="fill:#fff;"/><path d="M1239.64,952.637c-6.255,8.901 -21.028,21.724 -32.969,28.618c-11.94,6.893 -16.556,5.264 -10.301,-3.636c6.255,-8.9 21.028,-21.723 32.969,-28.617c11.94,-6.894 16.556,-5.265 10.301,3.635Z" style="fill:#fff;"/></g><g><path d="M1088.94,1093.64c-6.255,8.9 -21.028,21.723 -32.968,28.617c-11.941,6.894 -16.557,5.265 -10.301,-3.635c6.255,-8.901 21.028,-21.723 32.968,-28.617c11.941,-6.894 16.557,-5.265 10.301,3.635Z" style="fill:#fff;"/><path d="M1175.83,1043.43c-6.255,8.901 -21.028,21.723 -32.969,28.617c-11.94,6.894 -16.556,5.265 -10.301,-3.635c6.255,-8.9 21.028,-21.723 32.969,-28.617c11.94,-6.894 16.556,-5.265 10.301,3.635Z" style="fill:#fff;"/></g></g></g></g><g id="_23" serif:id="23"><g id="pip24" serif:id="pip2"><path d="M628.132,1144.72l170.363,-39.332l-145.141,112.99l-170.363,39.331l145.141,-112.989Z" style="fill:#595959;"/><g><g><path d="M669.222,1148.3c10.466,-8.147 5.665,-11.691 -10.714,-7.91c-16.379,3.781 -38.173,13.466 -48.638,21.613c-10.465,8.147 -5.665,11.691 10.714,7.91c16.379,-3.781 38.173,-13.466 48.638,-21.613Z" style="fill:#fff;"/></g><g><path d="M671.505,1200.79c10.465,-8.147 5.664,-11.692 -10.714,-7.91c-16.379,3.781 -38.173,13.465 -48.638,21.612c-10.466,8.148 -5.665,11.692 10.714,7.911c16.378,-3.782 38.172,-13.466 48.638,-21.613Z" style="fill:#fff;"/></g></g></g><g id="Domino-Base7" serif:id="Domino Base"><g><path d="M858.894,1190.45c-0,-0 -405.65,91.184 -403.891,89.376l150.047,-133.625c3.558,-3.658 420.653,-97.116 420.653,-97.116c6.542,-1.51 -166.809,141.365 -166.809,141.365Z" style="fill:#595959;stroke:#131313;stroke-width:5.56px;stroke-linejoin:bevel;"/><path d="M665.61,1224.89l-19.539,4.51l169.551,-131.991l19.538,-4.511l-169.55,131.992Z" style="fill:#fff;"/></g><g><path d="M1059.67,1103.15l-167.847,142.305l-35.01,-58.74l169.059,-137.587l33.798,54.022Z" style="fill:#333;stroke:#000;stroke-width:5.56px;"/><path d="M891.828,1245.45l-401.63,92.724l-35.28,-58.678l401.9,-92.786l35.01,58.74Z" style="fill:#262626;stroke:#000;stroke-width:5.56px;"/></g></g><g id="pip32" serif:id="pip3"><path d="M827.355,1104.01l170.363,-39.332l-145.141,112.989l-170.363,39.332l145.141,-112.989Z" style="fill:#595959;"/><g><g><path d="M865.576,1106.77c8.979,-6.99 4.86,-10.03 -9.192,-6.786c-14.052,3.244 -32.75,11.552 -41.728,18.542c-8.979,6.99 -4.86,10.031 9.192,6.786c14.052,-3.244 32.749,-11.552 41.728,-18.542Z" style="fill:#fff;"/><path d="M865.929,1165.67c8.979,-6.989 4.86,-10.03 -9.192,-6.786c-14.052,3.244 -32.75,11.552 -41.728,18.542c-8.979,6.99 -4.86,10.031 9.192,6.787c14.052,-3.245 32.749,-11.553 41.728,-18.543Z" style="fill:#fff;"/><path d="M865.753,1136.22c8.978,-6.989 4.859,-10.03 -9.193,-6.786c-14.051,3.244 -32.749,11.552 -41.728,18.542c-8.978,6.99 -4.86,10.031 9.192,6.787c14.052,-3.245 32.75,-11.553 41.729,-18.543Z" style="fill:#fff;"/></g></g></g></g><g id="_14" serif:id="14"><g id="Domino-Base8" serif:id="Domino Base"><g><path d="M545.215,1218.46c0,0 -412.958,48.283 -411.02,46.669l163.192,-117.21c3.922,-3.265 428.5,-52.613 428.5,-52.613c6.665,-0.818 -180.672,123.154 -180.672,123.154Z" style="fill:#595959;stroke:#131313;stroke-width:5.56px;stroke-linejoin:bevel;"/><path d="M349.39,1232.51l-19.903,2.443l182.418,-113.545l19.903,-2.444l-182.418,113.546Z" style="fill:#fff;"/></g><g><path d="M754.022,1152.62l-181.802,123.981l-28.679,-62.078l182.516,-119.162l27.965,57.259Z" style="fill:#333;stroke:#000;stroke-width:5.56px;"/><path d="M572.22,1276.6l-409.122,50.234l-28.953,-62.045l409.396,-50.267l28.679,62.078Z" style="fill:#262626;stroke:#000;stroke-width:5.56px;"/></g></g><g id="pip12" serif:id="pip1"><path d="M304.574,1157.5l173.54,-21.308l-156.156,97.199l-173.541,21.308l156.157,-97.199Z" style="fill:#595959;"/><g><g><path d="M343.504,1191.73c-11.263,7.011 -33.956,14.366 -50.645,16.415c-16.689,2.049 -21.094,-1.978 -9.831,-8.989c11.262,-7.01 33.956,-14.366 50.645,-16.415c16.688,-2.049 21.094,1.979 9.831,8.989Z" style="fill:#fff;"/></g></g></g><g id="pip41" serif:id="pip4"><path d="M535.481,1129.14l173.541,-21.308l-156.157,97.199l-173.541,21.308l156.157,-97.199Z" style="fill:#595959;"/><g><g><path d="M566.279,1140.85c-9.236,5.748 -27.845,11.78 -41.53,13.46c-13.685,1.68 -17.297,-1.623 -8.061,-7.371c9.235,-5.749 27.844,-11.78 41.529,-13.461c13.685,-1.68 17.297,1.623 8.062,7.372Z" style="fill:#fff;"/><path d="M665.876,1128.59c-9.236,5.748 -27.844,11.78 -41.529,13.46c-13.685,1.68 -17.298,-1.623 -8.062,-7.371c9.235,-5.749 27.844,-11.78 41.529,-13.461c13.685,-1.68 17.297,1.623 8.062,7.372Z" style="fill:#fff;"/></g><g><path d="M472.061,1199.5c-9.235,5.749 -27.844,11.78 -41.529,13.46c-13.685,1.681 -17.297,-1.622 -8.062,-7.371c9.236,-5.749 27.844,-11.78 41.529,-13.46c13.685,-1.681 17.298,1.622 8.062,7.371Z" style="fill:#fff;"/><path d="M571.658,1187.23c-9.235,5.749 -27.844,11.78 -41.529,13.46c-13.685,1.681 -17.297,-1.622 -8.062,-7.371c9.236,-5.749 27.845,-11.78 41.53,-13.46c13.685,-1.681 17.297,1.622 8.061,7.371Z" style="fill:#fff;"/></g></g></g></g></g></g><g id="Simple-custom1" serif:id="Simple custom"><g><g id="_361" serif:id="36"><g id="Domino-Base9" serif:id="Domino Base"><g><path d="M1969.92,915.073c0,0 -2.404,415.765 -3.77,413.644l-96.447,-176.26c-2.764,-4.29 -0,-431.718 -0,-431.718c-0,-6.714 100.217,194.334 100.217,194.334Z" style="fill:#595959;stroke:#131313;stroke-width:5.56px;stroke-linejoin:bevel;"/><path d="M1960,1111.15l-0,20.052l-90.468,-194.896l-0,-20.052l90.468,194.896Z" style="fill:#fff;"/></g><g><path d="M1930.02,699.798l100.9,195.557l-65.11,20.9l-96.03,-195.677l60.24,-20.78Z" style="fill:#333;stroke:#000;stroke-width:5.56px;"/><path d="M2030.92,895.355l0,412.195l-65.11,21.175l-0,-412.47l65.11,-20.9Z" style="fill:#262626;stroke:#000;stroke-width:5.56px;"/></g></g><g id="pip33" serif:id="pip3"><path d="M1877.04,1139.73l0,-174.844l77.444,166.838l-0,174.844l-77.444,-166.838Z" style="fill:#595959;"/><g><g><path d="M1888.32,1103.11c-4.791,-10.32 -8.68,-6.991 -8.68,7.43c-0,14.422 3.889,34.509 8.68,44.83c4.791,10.321 8.68,6.992 8.68,-7.43c0,-14.421 -3.889,-34.509 -8.68,-44.83Z" style="fill:#fff;"/><path d="M1945.8,1116.02c-4.791,-10.321 -8.681,-6.992 -8.681,7.43c0,14.421 3.89,34.509 8.681,44.83c4.79,10.321 8.68,6.991 8.68,-7.43c-0,-14.422 -3.89,-34.509 -8.68,-44.83Z" style="fill:#fff;"/><path d="M1917.06,1109.56c-4.791,-10.321 -8.681,-6.991 -8.681,7.43c0,14.422 3.89,34.509 8.681,44.83c4.791,10.321 8.68,6.992 8.68,-7.43c0,-14.421 -3.889,-34.509 -8.68,-44.83Z" style="fill:#fff;"/></g></g></g><g id="pip61" serif:id="pip6"><path d="M1877.04,920.732l0,-174.844l77.444,166.838l-0,174.844l-77.444,-166.838Z" style="fill:#595959;"/><g><g><g><g><path d="M1890.73,836.855c4.739,10.209 8.586,30.078 8.586,44.343c0,14.265 -3.847,17.558 -8.586,7.349c-4.739,-10.209 -8.586,-30.078 -8.586,-44.343c0,-14.265 3.847,-17.558 8.586,-7.349Z" style="fill:#fff;"/><path d="M1890.73,893.794c4.739,10.209 8.586,30.078 8.586,44.343c0,14.265 -3.847,17.558 -8.586,7.349c-4.739,-10.208 -8.586,-30.078 -8.586,-44.343c0,-14.264 3.847,-17.557 8.586,-7.349Z" style="fill:#fff;"/><path d="M1890.53,779.488c4.738,10.209 8.586,30.078 8.586,44.343c-0,14.265 -3.848,17.558 -8.586,7.349c-4.739,-10.208 -8.586,-30.078 -8.586,-44.343c-0,-14.264 3.847,-17.557 8.586,-7.349Z" style="fill:#fff;"/></g></g></g><g><g><g><path d="M1940.99,945.338c4.739,10.209 8.586,30.078 8.586,44.343c0,14.265 -3.847,17.558 -8.586,7.349c-4.738,-10.208 -8.586,-30.078 -8.586,-44.343c0,-14.264 3.848,-17.557 8.586,-7.349Z" style="fill:#fff;"/><path d="M1940.99,1002.28c4.739,10.208 8.586,30.078 8.586,44.343c0,14.264 -3.847,17.557 -8.586,7.349c-4.738,-10.209 -8.586,-30.078 -8.586,-44.343c0,-14.265 3.848,-17.558 8.586,-7.349Z" style="fill:#fff;"/><path d="M1940.79,887.972c4.739,10.208 8.586,30.078 8.586,44.343c-0,14.264 -3.847,17.557 -8.586,7.349c-4.739,-10.209 -8.586,-30.078 -8.586,-44.343c-0,-14.265 3.847,-17.558 8.586,-7.349Z" style="fill:#fff;"/></g></g></g></g></g></g><g id="_021" serif:id="02"><g id="Domino-Base10" serif:id="Domino Base"><g><path d="M1827.27,911.854c-0,-0 -38.632,413.972 -39.807,411.741l-80.719,-183.995c-2.379,-4.515 37.627,-430.075 37.627,-430.075c0.585,-6.689 82.899,202.329 82.899,202.329Z" style="fill:#595959;stroke:#131313;stroke-width:5.56px;stroke-linejoin:bevel;"/><path d="M1800.29,1106.32l-1.748,19.976l-73.137,-202.039l1.747,-19.976l73.138,202.039Z" style="fill:#fff;"/></g><g><path d="M1806.28,693.92l83.472,203.607l-66.684,15.145l-78.61,-203.302l61.822,-15.45Z" style="fill:#333;stroke:#000;stroke-width:5.56px;"/><path d="M1889.75,897.527l-35.925,410.626l-66.708,15.42l35.949,-410.901l66.684,-15.145Z" style="fill:#262626;stroke:#000;stroke-width:5.56px;"/></g></g><g id="pip25" serif:id="pip2"><path d="M1713.81,1110.39l15.239,-174.178l62.608,172.953l-15.239,174.178l-62.608,-172.953Z" style="fill:#595959;"/><g><g><path d="M1729.9,1072.42c-4.514,-12.471 -9.369,-9 -10.834,7.745c-1.465,16.746 1.011,40.466 5.525,52.937c4.514,12.47 9.369,9 10.834,-7.746c1.465,-16.745 -1.011,-40.465 -5.525,-52.936Z" style="fill:#fff;"/></g><g><path d="M1780.53,1086.47c-4.514,-12.471 -9.369,-9 -10.834,7.746c-1.465,16.745 1.011,40.465 5.525,52.936c4.515,12.471 9.369,9 10.834,-7.746c1.465,-16.745 -1.011,-40.465 -5.525,-52.936Z" style="fill:#fff;"/></g></g></g></g><g id="_101" serif:id="10"><g id="Domino-Base11" serif:id="Domino Base"><g><path d="M1743.78,911.894c0,-0 -74.564,409.031 -75.541,406.705l-64.375,-190.33c-1.976,-4.705 74.967,-425.159 74.967,-425.159c1.166,-6.613 64.949,208.784 64.949,208.784Z" style="fill:#595959;stroke:#131313;stroke-width:5.56px;stroke-linejoin:bevel;"/><path d="M1699.96,1103.27l-3.482,19.748l-55.25,-207.645l3.482,-19.748l55.25,207.645Z" style="fill:#fff;"/></g><g><path d="M1741.86,692.961l65.41,210.107l-67.75,9.275l-60.593,-209.379l62.933,-10.003Z" style="fill:#333;stroke:#000;stroke-width:5.56px;"/><path d="M1807.27,903.068l-71.577,405.932l-67.798,9.548l71.625,-406.205l67.75,-9.275Z" style="fill:#262626;stroke:#000;stroke-width:5.56px;"/></g></g><g id="pip13" serif:id="pip1"><path d="M1649.62,906.579l30.362,-172.188l47.296,177.752l-30.362,172.187l-47.296,-177.751Z" style="fill:#595959;"/><g><g><path d="M1693.74,879.358c3.411,12.821 3.81,36.673 0.891,53.232c-2.92,16.559 -8.06,19.594 -11.471,6.773c-3.411,-12.82 -3.811,-36.672 -0.891,-53.231c2.92,-16.559 8.06,-19.594 11.471,-6.774Z" style="fill:#fff;"/></g></g></g></g><g id="_521" serif:id="52"><g id="Domino-Base12" serif:id="Domino Base"><g><path d="M1642.86,921.729c0,0 -144.459,389.869 -145.017,387.409l-30.346,-198.617c-1.13,-4.977 147.656,-405.682 147.656,-405.682c2.296,-6.31 27.707,216.89 27.707,216.89Z" style="fill:#595959;stroke:#131313;stroke-width:5.56px;stroke-linejoin:bevel;"/><path d="M1566.48,1102.59l-6.858,18.843l-18.354,-214.085l6.858,-18.843l18.354,214.085Z" style="fill:#fff;"/></g><g><path d="M1678.99,705.79l27.931,218.273l-68.332,-2.63l-23.313,-216.721l63.714,1.078Z" style="fill:#333;stroke:#000;stroke-width:5.56px;"/><path d="M1706.92,924.063l-140.979,387.336l-68.426,-2.37l141.073,-387.596l68.332,2.63Z" style="fill:#262626;stroke:#000;stroke-width:5.56px;"/></g></g><g id="pip26" serif:id="pip2"><path d="M1485.04,1073.22l59.8,-164.299l15.711,183.263l-59.8,164.3l-15.711,-183.264Z" style="fill:#595959;"/><g><g><path d="M1510.41,1040.71c-1.133,-13.214 -6.72,-11.118 -12.469,4.678c-5.749,15.795 -9.497,39.348 -8.365,52.562c1.133,13.214 6.721,11.118 12.47,-4.677c5.749,-15.796 9.497,-39.349 8.364,-52.563Z" style="fill:#fff;"/></g><g><path d="M1555.68,1067.38c-1.133,-13.214 -6.721,-11.118 -12.47,4.678c-5.749,15.796 -9.497,39.348 -8.364,52.562c1.133,13.215 6.72,11.119 12.469,-4.677c5.75,-15.796 9.497,-39.348 8.365,-52.563Z" style="fill:#fff;"/></g></g></g><g id="pip52" serif:id="pip5"><path d="M1554.33,882.836l59.8,-164.299l15.711,183.263l-59.8,164.3l-15.711,-183.264Z" style="fill:#595959;"/><g><g><path d="M1577.36,856.512c1.033,12.044 -2.383,33.51 -7.623,47.906c-5.24,14.397 -10.332,16.307 -11.365,4.263c-1.032,-12.043 2.384,-33.509 7.624,-47.905c5.239,-14.397 10.332,-16.307 11.364,-4.264Z" style="fill:#fff;"/><path d="M1615.45,751.72c1.033,12.044 -2.383,33.51 -7.623,47.906c-5.24,14.396 -10.332,16.306 -11.364,4.263c-1.033,-12.044 2.383,-33.509 7.623,-47.906c5.24,-14.396 10.332,-16.306 11.364,-4.263Z" style="fill:#fff;"/></g><g><path d="M1587.89,979.375c1.033,12.044 -2.383,33.509 -7.623,47.906c-5.24,14.396 -10.332,16.306 -11.365,4.263c-1.032,-12.044 2.384,-33.51 7.624,-47.906c5.24,-14.396 10.332,-16.307 11.364,-4.263Z" style="fill:#fff;"/><path d="M1625.99,874.583c1.033,12.043 -2.383,33.509 -7.623,47.905c-5.24,14.397 -10.332,16.307 -11.364,4.263c-1.033,-12.043 2.383,-33.509 7.623,-47.905c5.24,-14.397 10.332,-16.307 11.364,-4.263Z" style="fill:#fff;"/></g><path d="M1601.67,865.548c1.033,12.043 -2.383,33.509 -7.623,47.905c-5.24,14.397 -10.332,16.307 -11.365,4.263c-1.032,-12.043 2.384,-33.509 7.624,-47.905c5.24,-14.397 10.332,-16.307 11.364,-4.263Z" style="fill:#fff;"/></g></g></g><g id="_531" serif:id="53"><g id="Domino-Base13" serif:id="Domino Base"><g><path d="M1519.44,944.28c-0,0 -209.964,358.861 -210.087,356.342l4.604,-200.87c-0.248,-5.097 215.859,-373.879 215.859,-373.879c3.357,-5.815 -10.376,218.407 -10.376,218.407Z" style="fill:#595959;stroke:#131313;stroke-width:5.56px;stroke-linejoin:bevel;"/><path d="M1412.81,1109.13l-10.026,17.366l19.1,-214.019l10.027,-17.366l-19.101,214.019Z" style="fill:#fff;"/></g><g><path d="M1592.52,737.896l-10.396,219.807l-66.837,-14.456l14.674,-217.476l62.559,12.125Z" style="fill:#333;stroke:#000;stroke-width:5.56px;"/><path d="M1582.12,957.703l-206.097,356.971l-66.975,-14.216l206.235,-357.211l66.837,14.456Z" style="fill:#262626;stroke:#000;stroke-width:5.56px;"/></g></g><g id="pip34" serif:id="pip3"><path d="M1331.47,1090.86l87.422,-151.419l-16.351,183.208l-87.422,151.419l16.351,-183.208Z" style="fill:#595959;"/><g><g><path d="M1359.55,1064.79c1.011,-11.334 -4.022,-10.395 -11.232,2.094c-7.211,12.489 -13.887,31.831 -14.898,43.164c-1.012,11.334 4.021,10.395 11.232,-2.094c7.211,-12.49 13.886,-31.831 14.898,-43.164Z" style="fill:#fff;"/><path d="M1402.87,1104.71c1.012,-11.334 -4.021,-10.395 -11.232,2.094c-7.211,12.49 -13.886,31.831 -14.898,43.164c-1.011,11.334 4.022,10.395 11.232,-2.094c7.211,-12.489 13.887,-31.831 14.898,-43.164Z" style="fill:#fff;"/><path d="M1381.21,1084.75c1.012,-11.333 -4.021,-10.395 -11.232,2.095c-7.211,12.489 -13.886,31.83 -14.897,43.164c-1.012,11.333 4.021,10.395 11.232,-2.095c7.211,-12.489 13.886,-31.83 14.897,-43.164Z" style="fill:#fff;"/></g></g></g><g id="pip53" serif:id="pip5"><path d="M1439.05,904.521l87.422,-151.419l-16.351,183.207l-87.422,151.42l16.351,-183.208Z" style="fill:#595959;"/><g><g><path d="M1466.3,882.595c-1.075,12.04 -8.166,32.587 -15.826,45.854c-7.66,13.268 -13.007,14.265 -11.933,2.225c1.075,-12.04 8.166,-32.586 15.826,-45.854c7.661,-13.268 13.007,-14.265 11.933,-2.225Z" style="fill:#fff;"/><path d="M1522.01,786.011c-1.075,12.04 -8.166,32.586 -15.826,45.854c-7.66,13.268 -13.007,14.265 -11.932,2.225c1.074,-12.04 8.166,-32.587 15.826,-45.854c7.66,-13.268 13.007,-14.265 11.932,-2.225Z" style="fill:#fff;"/></g><g><path d="M1455.33,1005.42c-1.075,12.04 -8.166,32.587 -15.826,45.854c-7.66,13.268 -13.007,14.265 -11.932,2.225c1.074,-12.04 8.166,-32.586 15.826,-45.854c7.66,-13.268 13.006,-14.265 11.932,-2.225Z" style="fill:#fff;"/><path d="M1511.05,908.836c-1.074,12.04 -8.166,32.586 -15.826,45.854c-7.66,13.268 -13.007,14.265 -11.932,2.225c1.074,-12.04 8.166,-32.587 15.826,-45.854c7.66,-13.268 13.007,-14.265 11.932,-2.225Z" style="fill:#fff;"/></g><path d="M1488.67,895.716c-1.074,12.039 -8.165,32.586 -15.826,45.854c-7.66,13.267 -13.006,14.264 -11.932,2.224c1.075,-12.039 8.166,-32.586 15.826,-45.854c7.66,-13.267 13.007,-14.264 11.932,-2.224Z" style="fill:#fff;"/></g></g></g><g id="_211" serif:id="21"><g id="Domino-Base14" serif:id="Domino Base"><g><path d="M1362.61,1000.35c-0,-0 -295.69,292.29 -295.156,289.825l56.436,-192.834c1.079,-4.987 305.27,-305.27 305.27,-305.27c4.748,-4.748 -66.55,208.279 -66.55,208.279Z" style="fill:#595959;stroke:#131313;stroke-width:5.56px;stroke-linejoin:bevel;"/><path d="M1216.95,1131.98l-14.18,14.179l73.842,-201.783l14.18,-14.179l-73.842,201.783Z" style="fill:#fff;"/></g><g><path d="M1486.62,819.911l-66.932,209.627l-60.818,-31.261l70.461,-206.269l57.289,27.903Z" style="fill:#333;stroke:#000;stroke-width:5.56px;"/><path d="M1419.68,1029.54l-291.466,291.466l-61.013,-31.067l291.661,-291.66l60.818,31.261Z" style="fill:#262626;stroke:#000;stroke-width:5.56px;"/></g></g><g id="pip27" serif:id="pip2"><path d="M1285.39,939.05l123.634,-123.633l-63.211,172.733l-123.634,123.633l63.211,-172.733Z" style="fill:#595959;"/><g><g><path d="M1322.13,920.304c4.558,-12.455 -1.391,-12.916 -13.277,-1.03c-11.887,11.886 -25.237,31.648 -29.795,44.103c-4.558,12.455 1.392,12.916 13.278,1.03c11.886,-11.886 25.237,-31.648 29.794,-44.103Z" style="fill:#fff;"/></g><g><path d="M1351.88,963.611c4.558,-12.455 -1.392,-12.917 -13.278,-1.03c-11.886,11.886 -25.236,31.647 -29.794,44.102c-4.558,12.455 1.392,12.917 13.278,1.031c11.886,-11.886 25.236,-31.648 29.794,-44.103Z" style="fill:#fff;"/></g></g></g><g id="pip14" serif:id="pip1"><path d="M1147.56,1076.88l123.634,-123.633l-63.212,172.733l-123.633,123.634l63.211,-172.734Z" style="fill:#595959;"/><g><g><path d="M1199.32,1079.88c-4.559,12.459 -17.913,32.226 -29.802,44.115c-11.89,11.89 -17.841,11.428 -13.282,-1.031c4.559,-12.458 17.913,-32.225 29.803,-44.115c11.889,-11.889 17.841,-11.427 13.281,1.031Z" style="fill:#fff;"/></g></g></g></g><g id="_241" serif:id="24"><g id="Domino-Base15" serif:id="Domino Base"><g><path d="M1173.21,1079.58c-0,0 -361.265,205.801 -360.111,203.557l104.422,-171.656c2.333,-4.538 373.878,-215.859 373.878,-215.859c5.815,-3.357 -118.189,183.958 -118.189,183.958Z" style="fill:#595959;stroke:#131313;stroke-width:5.56px;stroke-linejoin:bevel;"/><path d="M998.441,1169.03l-17.366,10.026l123.551,-175.795l17.366,-10.027l-123.551,175.796Z" style="fill:#fff;"/></g><g><path d="M1339.69,937.385l-118.906,185.161l-50.655,-45.937l121.446,-181.003l48.115,41.779Z" style="fill:#333;stroke:#000;stroke-width:5.56px;"/><path d="M1220.79,1122.55l-356.971,206.098l-50.894,-45.8l357.21,-206.235l50.655,45.937Z" style="fill:#262626;stroke:#000;stroke-width:5.56px;"/></g></g><g id="pip28" serif:id="pip2"><path d="M929.926,1113.74l151.419,-87.422l-105.764,150.488l-151.42,87.422l105.765,-150.488Z" style="fill:#595959;"/><g><g><path d="M970.264,1105.14c7.627,-10.851 1.999,-12.837 -12.558,-4.432c-14.558,8.405 -32.568,24.038 -40.194,34.889c-7.626,10.851 -1.999,12.837 12.559,4.432c14.557,-8.405 32.567,-24.038 40.193,-34.889Z" style="fill:#fff;"/></g><g><path d="M987.795,1154.67c7.626,-10.851 1.999,-12.837 -12.559,-4.432c-14.557,8.405 -32.568,24.038 -40.194,34.889c-7.626,10.85 -1.998,12.836 12.559,4.432c14.557,-8.405 32.568,-24.038 40.194,-34.889Z" style="fill:#fff;"/></g></g></g><g id="pip42" serif:id="pip4"><path d="M1119.83,1004.1l151.42,-87.422l-105.765,150.487l-151.419,87.422l105.764,-150.487Z" style="fill:#595959;"/><g><g><path d="M1152.76,1002.84c-6.255,8.9 -21.028,21.723 -32.968,28.617c-11.941,6.894 -16.556,5.265 -10.301,-3.635c6.255,-8.9 21.028,-21.723 32.968,-28.617c11.941,-6.894 16.557,-5.265 10.301,3.635Z" style="fill:#fff;"/><path d="M1239.64,952.637c-6.255,8.901 -21.028,21.724 -32.969,28.618c-11.94,6.893 -16.556,5.264 -10.301,-3.636c6.255,-8.9 21.028,-21.723 32.969,-28.617c11.94,-6.894 16.556,-5.265 10.301,3.635Z" style="fill:#fff;"/></g><g><path d="M1088.94,1093.64c-6.255,8.9 -21.028,21.723 -32.968,28.617c-11.941,6.894 -16.557,5.265 -10.301,-3.635c6.255,-8.901 21.028,-21.723 32.968,-28.617c11.941,-6.894 16.557,-5.265 10.301,3.635Z" style="fill:#fff;"/><path d="M1175.83,1043.43c-6.255,8.901 -21.028,21.723 -32.969,28.617c-11.94,6.894 -16.556,5.265 -10.301,-3.635c6.255,-8.9 21.028,-21.723 32.969,-28.617c11.94,-6.894 16.556,-5.265 10.301,3.635Z" style="fill:#fff;"/></g></g></g></g><g id="_231" serif:id="23"><g id="pip29" serif:id="pip2"><path d="M628.132,1144.72l170.363,-39.332l-145.141,112.99l-170.363,39.331l145.141,-112.989Z" style="fill:#595959;"/><g><g><path d="M669.222,1148.3c10.466,-8.147 5.665,-11.691 -10.714,-7.91c-16.379,3.781 -38.173,13.466 -48.638,21.613c-10.465,8.147 -5.665,11.691 10.714,7.91c16.379,-3.781 38.173,-13.466 48.638,-21.613Z" style="fill:#fff;"/></g><g><path d="M671.505,1200.79c10.465,-8.147 5.664,-11.692 -10.714,-7.91c-16.379,3.781 -38.173,13.465 -48.638,21.612c-10.466,8.148 -5.665,11.692 10.714,7.911c16.378,-3.782 38.172,-13.466 48.638,-21.613Z" style="fill:#fff;"/></g></g></g><g id="Domino-Base16" serif:id="Domino Base"><g><path d="M858.894,1190.45c-0,-0 -405.65,91.184 -403.891,89.376l150.047,-133.625c3.558,-3.658 420.653,-97.116 420.653,-97.116c6.542,-1.51 -166.809,141.365 -166.809,141.365Z" style="fill:#595959;stroke:#131313;stroke-width:5.56px;stroke-linejoin:bevel;"/><path d="M665.61,1224.89l-19.539,4.51l169.551,-131.991l19.538,-4.511l-169.55,131.992Z" style="fill:#fff;"/></g><g><path d="M1059.67,1103.15l-167.847,142.305l-35.01,-58.74l169.059,-137.587l33.798,54.022Z" style="fill:#333;stroke:#000;stroke-width:5.56px;"/><path d="M891.828,1245.45l-401.63,92.724l-35.28,-58.678l401.9,-92.786l35.01,58.74Z" style="fill:#262626;stroke:#000;stroke-width:5.56px;"/></g></g><g id="pip35" serif:id="pip3"><path d="M827.355,1104.01l170.363,-39.332l-145.141,112.989l-170.363,39.332l145.141,-112.989Z" style="fill:#595959;"/><g><g><path d="M865.576,1106.77c8.979,-6.99 4.86,-10.03 -9.192,-6.786c-14.052,3.244 -32.75,11.552 -41.728,18.542c-8.979,6.99 -4.86,10.031 9.192,6.786c14.052,-3.244 32.749,-11.552 41.728,-18.542Z" style="fill:#fff;"/><path d="M865.929,1165.67c8.979,-6.989 4.86,-10.03 -9.192,-6.786c-14.052,3.244 -32.75,11.552 -41.728,18.542c-8.979,6.99 -4.86,10.031 9.192,6.787c14.052,-3.245 32.749,-11.553 41.728,-18.543Z" style="fill:#fff;"/><path d="M865.753,1136.22c8.978,-6.989 4.859,-10.03 -9.193,-6.786c-14.051,3.244 -32.749,11.552 -41.728,18.542c-8.978,6.99 -4.86,10.031 9.192,6.787c14.052,-3.245 32.75,-11.553 41.729,-18.543Z" style="fill:#fff;"/></g></g></g></g><g id="_141" serif:id="14"><g id="Domino-Base17" serif:id="Domino Base"><g><path d="M545.215,1218.46c0,0 -412.958,48.283 -411.02,46.669l163.192,-117.21c3.922,-3.265 428.5,-52.613 428.5,-52.613c6.665,-0.818 -180.672,123.154 -180.672,123.154Z" style="fill:#595959;stroke:#131313;stroke-width:5.56px;stroke-linejoin:bevel;"/><path d="M349.39,1232.51l-19.903,2.443l182.418,-113.545l19.903,-2.444l-182.418,113.546Z" style="fill:#fff;"/></g><g><path d="M754.022,1152.62l-181.802,123.981l-28.679,-62.078l182.516,-119.162l27.965,57.259Z" style="fill:#333;stroke:#000;stroke-width:5.56px;"/><path d="M572.22,1276.6l-409.122,50.234l-28.953,-62.045l409.396,-50.267l28.679,62.078Z" style="fill:#262626;stroke:#000;stroke-width:5.56px;"/></g></g><g id="pip15" serif:id="pip1"><path d="M304.574,1157.5l173.54,-21.308l-156.156,97.199l-173.541,21.308l156.157,-97.199Z" style="fill:#595959;"/><g><g><path d="M343.504,1191.73c-11.263,7.011 -33.956,14.366 -50.645,16.415c-16.689,2.049 -21.094,-1.978 -9.831,-8.989c11.262,-7.01 33.956,-14.366 50.645,-16.415c16.688,-2.049 21.094,1.979 9.831,8.989Z" style="fill:#fff;"/></g></g></g><g id="pip43" serif:id="pip4"><path d="M535.481,1129.14l173.541,-21.308l-156.157,97.199l-173.541,21.308l156.157,-97.199Z" style="fill:#595959;"/><g><g><path d="M566.279,1140.85c-9.236,5.748 -27.845,11.78 -41.53,13.46c-13.685,1.68 -17.297,-1.623 -8.061,-7.371c9.235,-5.749 27.844,-11.78 41.529,-13.461c13.685,-1.68 17.297,1.623 8.062,7.372Z" style="fill:#fff;"/><path d="M665.876,1128.59c-9.236,5.748 -27.844,11.78 -41.529,13.46c-13.685,1.68 -17.298,-1.623 -8.062,-7.371c9.235,-5.749 27.844,-11.78 41.529,-13.461c13.685,-1.68 17.297,1.623 8.062,7.372Z" style="fill:#fff;"/></g><g><path d="M472.061,1199.5c-9.235,5.749 -27.844,11.78 -41.529,13.46c-13.685,1.681 -17.297,-1.622 -8.062,-7.371c9.236,-5.749 27.844,-11.78 41.529,-13.46c13.685,-1.681 17.298,1.622 8.062,7.371Z" style="fill:#fff;"/><path d="M571.658,1187.23c-9.235,5.749 -27.844,11.78 -41.529,13.46c-13.685,1.681 -17.297,-1.622 -8.062,-7.371c9.236,-5.749 27.845,-11.78 41.53,-13.46c13.685,-1.681 17.297,1.622 8.061,7.371Z" style="fill:#fff;"/></g></g></g></g></g></g></g></g><g transform="matrix(8.87321,0,0,12.814,-1907.74,-1233.38)"><g transform="matrix(0.469578,0,0,0.325165,114.041,129.568)"><path d="M260.098,242.443l0,-9.831c0,-3.682 2.985,-6.666 6.667,-6.666l12.16,-0c3.682,-0 6.667,2.984 6.667,6.666l-0,17.94c1.397,-1.567 2.955,-2.935 4.666,-4.109c4.045,-2.775 8.665,-4.199 13.883,-4.199c5.206,0 9.831,1.418 13.897,4.186c1.709,1.164 3.262,2.519 4.652,4.068l0,-0.819c0,-3.682 2.985,-6.667 6.667,-6.667l11.584,0c1.079,0 2.098,0.257 3,0.712c2.305,-0.988 4.762,-1.48 7.368,-1.48c4.267,0 8.086,1.284 11.446,3.878c3.474,-2.59 7.405,-3.878 11.786,-3.878c4.1,0 7.753,1.135 10.974,3.348c1.489,1.022 2.85,2.291 4.06,3.825c0.059,-1.515 0.623,-2.901 1.53,-3.993c-1.87,-2.626 -2.879,-5.771 -2.879,-9.484c0,-4.152 1.261,-7.594 3.579,-10.394c2.675,-3.232 6.165,-4.891 10.512,-4.891c4.305,0 7.749,1.594 10.399,4.63c2.371,2.716 3.692,6.152 3.692,10.399c-0,2.829 -0.551,5.315 -1.576,7.484c0.463,-0.102 0.944,-0.156 1.437,-0.156l11.584,0c1.146,0 2.225,0.29 3.167,0.799c2.429,-1.042 5.042,-1.567 7.841,-1.567c4.052,0 7.714,1.109 10.994,3.296c3.04,2.027 5.56,5.029 7.379,9.148c2.045,-3.397 4.625,-6.135 7.701,-8.245c4.045,-2.775 8.666,-4.199 13.883,-4.199c5.206,0 9.832,1.418 13.897,4.186c1.178,0.802 2.281,1.694 3.308,2.679c0.468,-2.661 1.301,-5.153 2.482,-7.481c2.036,-4.014 5.07,-7.26 9.143,-9.7c3.868,-2.317 8.66,-3.593 14.434,-3.593c3.616,0 7.166,0.54 10.651,1.623c1.802,0.56 3.504,1.253 5.109,2.076c0.544,-2.462 1.621,-4.618 3.168,-6.488c2.675,-3.232 6.166,-4.891 10.512,-4.891c4.306,0 7.75,1.594 10.399,4.63c2.371,2.716 3.692,6.152 3.692,10.399c-0,3.861 -1.025,7.085 -2.884,9.733c0.92,1.106 1.49,2.515 1.537,4.055c1.146,-1.241 2.392,-2.332 3.734,-3.278c3.749,-2.645 7.86,-3.95 12.322,-3.95c2.875,0 5.473,0.519 7.809,1.516c0.919,-0.478 1.964,-0.748 3.071,-0.748l11.584,0c1.458,0 2.807,0.468 3.904,1.262c1.098,-0.794 2.446,-1.262 3.904,-1.262l11.584,0c1.147,0 2.226,0.29 3.168,0.799c2.428,-1.042 5.041,-1.567 7.84,-1.567c4.052,0 7.714,1.109 10.994,3.296c1.879,1.252 3.558,2.877 4.996,4.907c0.305,-0.433 0.664,-0.833 1.076,-1.191c2.583,-2.246 5.672,-4.011 9.294,-5.247c3.472,-1.184 6.932,-1.765 10.376,-1.765c7.804,0 13.761,2.604 18.047,7.373c0.237,0.264 0.469,0.537 0.695,0.818l-0,-17.823c-0,-3.682 2.984,-6.666 6.666,-6.666l12.16,-0c3.682,-0 6.667,2.984 6.667,6.666l-0,63.318c-0,3.682 -2.985,6.666 -6.667,6.666l-12.16,0c-1.429,0 -2.754,-0.45 -3.84,-1.216c-1.085,0.766 -2.41,1.216 -3.84,1.216l-11.328,0c-1.009,0 -1.965,-0.224 -2.822,-0.625c-2.157,0.907 -4.623,1.393 -7.418,1.393c-4.218,0 -7.76,-1.055 -10.68,-2.959c-0.684,-0.445 -1.33,-0.927 -1.939,-1.446c-1.104,2.159 -3.35,3.637 -5.941,3.637l-12.16,0c-2.92,0 -5.402,-1.878 -6.304,-4.492c-0.901,2.614 -3.383,4.492 -6.304,4.492l-12.16,0c-1.108,0 -2.154,-0.27 -3.073,-0.749c-1.172,3.77 -2.848,6.889 -4.945,9.382c-4.762,5.662 -11.42,8.69 -20.142,8.69c-4.08,0 -7.964,-0.636 -11.652,-1.892c-3.949,-1.344 -7.312,-3.345 -10.112,-5.96c-1.995,-1.861 -2.654,-4.749 -1.665,-7.291l1.026,-2.636c-0.753,0.295 -1.572,0.456 -2.429,0.456l-12.16,0c-3.261,0 -5.975,-2.341 -6.553,-5.434c-1.213,1.119 -2.563,2.127 -4.05,3.025c-3.843,2.319 -8.651,3.604 -14.485,3.604c-4.453,0 -8.737,-0.746 -12.853,-2.23c-4.311,-1.554 -7.793,-3.61 -10.505,-6.068c-0.009,-0.009 -0.018,-0.017 -0.026,-0.025c-1.278,1.371 -2.685,2.584 -4.219,3.643c-4.076,2.815 -8.714,4.253 -13.933,4.253c-5.231,0 -9.863,-1.444 -13.919,-4.266c-1.864,-1.296 -3.545,-2.824 -5.035,-4.59l-0,1.422c-0,3.682 -2.985,6.666 -6.667,6.666l-12.16,0c-2.921,0 -5.402,-1.878 -6.304,-4.492c-0.902,2.614 -3.384,4.492 -6.304,4.492l-12.16,0c-1.472,0 -2.833,-0.477 -3.936,-1.285c-1.103,0.808 -2.464,1.285 -3.936,1.285l-12.16,0c-1.43,0 -2.754,-0.45 -3.84,-1.216c-1.086,0.766 -2.41,1.216 -3.84,1.216l-12.16,0c-2.391,0 -4.487,-1.258 -5.664,-3.148c-1.177,1.89 -3.273,3.148 -5.664,3.148l-12.16,0c-2.413,0 -4.526,-1.281 -5.696,-3.2c-1.17,1.919 -3.284,3.2 -5.696,3.2l-12.16,0c-3.682,0 -6.667,-2.984 -6.667,-6.666l0,-0.899c-1.381,1.551 -2.922,2.91 -4.616,4.08c-4.076,2.815 -8.714,4.253 -13.933,4.253c-5.231,0 -9.864,-1.444 -13.919,-4.266c-1.697,-1.18 -3.243,-2.552 -4.63,-4.121l-0,0.953c-0,3.682 -2.985,6.666 -6.667,6.666l-11.584,0c-0.979,0 -1.908,-0.21 -2.745,-0.589c-2.206,0.89 -4.678,1.357 -7.431,1.357c-4.635,0 -8.854,-1.422 -12.643,-4.303c-3.427,-2.606 -6.222,-6.221 -8.261,-10.941c-1.856,-4.296 -2.851,-9.421 -2.851,-15.401c0,-5.918 0.993,-11.015 2.851,-15.316c2.047,-4.739 4.858,-8.348 8.298,-10.926c3.779,-2.831 7.984,-4.233 12.606,-4.233c1.013,0 1.99,0.067 2.933,0.199Zm278.678,16.86l-0,-1.493c-0.317,0.272 -0.659,0.514 -1.023,0.723c0.347,0.248 0.687,0.505 1.023,0.77Zm-176.281,-3.118c0.798,1.659 1.4,3.615 1.806,5.867l-3.968,-1.109c0.582,-1.765 1.303,-3.351 2.162,-4.758c-0.793,-1.652 -1.781,-3.01 -2.962,-4.074c-2.368,-2.133 -5.109,-3.2 -8.224,-3.2c-2.731,0 -5.205,0.839 -7.424,2.517c-1.096,0.829 -2.077,1.856 -2.944,3.08l-0,8.056l-2.304,-3.669c0.648,-1.67 1.416,-3.132 2.304,-4.387l-0,-4.829l-11.584,0l-0,46.251l12.16,-0l-0,-22.955c-0,-2.389 0.267,-4.338 0.8,-5.845c0.533,-1.508 1.259,-2.631 2.176,-3.371c0.917,-0.74 1.973,-1.109 3.168,-1.109c1.664,-0 2.955,0.753 3.872,2.261c0.917,1.508 1.376,3.911 1.376,7.211l-0,23.808l12.16,-0l-0,-22.955c-0,-2.389 0.256,-4.338 0.768,-5.845c0.512,-1.508 1.237,-2.631 2.176,-3.371c0.939,-0.74 1.984,-1.109 3.136,-1.109c1.621,-0 2.901,0.753 3.84,2.261c0.939,1.508 1.408,3.911 1.408,7.211l-0,23.808l12.16,-0l-0,-26.454c-0,-4.778 -0.608,-8.675 -1.824,-11.69c-1.216,-3.015 -2.88,-5.248 -4.992,-6.699c-2.112,-1.451 -4.512,-2.176 -7.2,-2.176c-3.243,0 -6.112,1.067 -8.608,3.2c-1.323,1.13 -2.468,2.488 -3.438,4.074Zm-95.154,35.13l-0,-3.321l0.064,-15.275l-0.64,-15.275l-0,-3.809c-0.609,-0.836 -1.281,-1.558 -2.016,-2.164c-2.069,-1.707 -4.597,-2.56 -7.584,-2.56c-3.157,0 -6.027,0.967 -8.608,2.901c-2.581,1.935 -4.64,4.679 -6.176,8.235c-1.536,3.556 -2.304,7.78 -2.304,12.672c-0,4.949 0.768,9.202 2.304,12.757c1.536,3.556 3.595,6.315 6.176,8.278c2.581,1.962 5.451,2.944 8.608,2.944c3.115,-0 5.696,-0.854 7.744,-2.56c0.912,-0.761 1.723,-1.701 2.432,-2.823Zm-0.576,-37.68c1.104,1.517 2,3.413 2.688,5.687c1.067,3.527 1.6,7.993 1.6,13.397c-0,5.518 -0.512,10.041 -1.536,13.568c-0.568,1.956 -1.293,3.632 -2.176,5.028l-0,4.615l11.584,-0l-0,-63.318l-12.16,0l-0,21.023Zm-7.04,30.177c-1.408,0 -2.656,-0.426 -3.744,-1.28c-1.088,-0.853 -1.952,-2.119 -2.592,-3.797c-0.64,-1.678 -0.96,-3.684 -0.96,-6.016c-0,-2.332 0.32,-4.309 0.96,-5.931c0.64,-1.621 1.504,-2.858 2.592,-3.712c1.088,-0.853 2.336,-1.28 3.744,-1.28c1.365,0 2.592,0.427 3.68,1.28c1.088,0.854 1.952,2.091 2.592,3.712c0.64,1.622 0.96,3.599 0.96,5.931c-0,2.332 -0.32,4.338 -0.96,6.016c-0.64,1.678 -1.504,2.944 -2.592,3.797c-1.088,0.854 -2.315,1.28 -3.68,1.28Zm-0.032,-7.247c0.024,-0.067 0.048,-0.136 0.075,-0.205c0.386,-1.014 0.522,-2.233 0.522,-3.641c0,-1.366 -0.119,-2.534 -0.494,-3.483c-0.036,-0.091 -0.069,-0.18 -0.103,-0.265c-0.034,0.085 -0.067,0.174 -0.103,0.265c-0.375,0.949 -0.494,2.117 -0.494,3.483c-0,1.408 0.136,2.627 0.522,3.641c0.027,0.069 0.051,0.138 0.075,0.205Zm416.629,13.388l0,-2.642l-0.832,-2.133l0,-4.096c-0.512,1.82 -1.312,3.171 -2.4,4.053c-1.088,0.882 -2.293,1.323 -3.616,1.323c-1.408,-0 -2.517,-0.427 -3.328,-1.28c-0.81,-0.854 -1.216,-1.991 -1.216,-3.414c0,-1.422 0.395,-2.56 1.184,-3.413c0.79,-0.853 2.166,-1.28 4.128,-1.28l5.248,0l0,-7.765c0,-0.233 -0.005,-0.46 -0.014,-0.683l-6.898,0c-3.584,0 -6.506,0.555 -8.768,1.664c-2.261,1.109 -3.936,2.702 -5.024,4.779c-1.088,2.076 -1.632,4.537 -1.632,7.381c0,2.674 0.502,5.092 1.504,7.253c1.003,2.162 2.464,3.869 4.384,5.12c1.92,1.252 4.267,1.878 7.04,1.878c3.03,-0 5.472,-0.811 7.328,-2.432c1.244,-1.087 2.215,-2.524 2.912,-4.313Zm-0.846,-21.33l1.294,0l0,8.448l-1.28,0l0,4.011l1.664,5.973c-0.211,1.051 -0.488,2.017 -0.832,2.898l0,5.977l11.328,-0l0,-25.686c0,-7.338 -1.546,-12.729 -4.64,-16.17c-3.093,-3.442 -7.456,-5.163 -13.088,-5.163c-2.73,0 -5.472,0.469 -8.224,1.408c-2.752,0.939 -5.109,2.261 -7.072,3.968l4.096,11.008c1.195,-1.252 2.646,-2.233 4.352,-2.944c1.707,-0.711 3.392,-1.067 5.056,-1.067c2.56,0 4.427,0.697 5.6,2.091c1.067,1.267 1.649,3.017 1.746,5.248Zm-84.85,19.511l0,-3.98l0.64,-12.971l-0.064,-13.056l0,-2.927c-0.914,-1.652 -2.023,-2.966 -3.328,-3.942c-2.09,-1.565 -4.608,-2.347 -7.552,-2.347c-3.072,0 -5.898,0.91 -8.48,2.731c-2.581,1.82 -4.65,4.394 -6.208,7.722c-1.557,3.328 -2.336,7.268 -2.336,11.819c0,4.551 0.779,8.491 2.336,11.819c1.558,3.328 3.627,5.916 6.208,7.765c2.582,1.849 5.408,2.773 8.48,2.773c2.944,0 5.462,-0.796 7.552,-2.389c1.042,-0.794 1.959,-1.799 2.752,-3.017Zm0.576,-32.934c0.551,0.995 1.031,2.113 1.44,3.354c1.088,3.299 1.632,7.509 1.632,12.629c0,5.12 -0.544,9.33 -1.632,12.629c-0.546,1.656 -1.218,3.096 -2.016,4.322l0,1.481c0,3.641 -0.725,6.414 -2.176,8.32c-1.45,1.906 -3.818,2.859 -7.104,2.859c-2.048,-0 -4.149,-0.441 -6.304,-1.323c-2.154,-0.882 -3.957,-2.091 -5.408,-3.627l-4.416,11.35c2.134,1.991 4.704,3.498 7.712,4.522c3.008,1.024 6.176,1.536 9.504,1.536c6.486,0 11.499,-2.105 15.04,-6.314c3.542,-4.21 5.312,-10.695 5.312,-19.456l0,-37.803l-11.584,0l0,5.521Zm-8,25.455c-1.45,0 -2.752,-0.398 -3.904,-1.195c-1.152,-0.796 -2.058,-1.905 -2.72,-3.328c-0.661,-1.422 -0.992,-3.072 -0.992,-4.949c0,-1.877 0.331,-3.527 0.992,-4.949c0.662,-1.423 1.568,-2.518 2.72,-3.286c1.152,-0.768 2.454,-1.152 3.904,-1.152c1.451,0 2.742,0.384 3.872,1.152c1.131,0.768 2.027,1.863 2.688,3.286c0.662,1.422 0.992,3.072 0.992,4.949c0,1.877 -0.33,3.527 -0.992,4.949c-0.661,1.423 -1.557,2.532 -2.688,3.328c-1.13,0.797 -2.421,1.195 -3.872,1.195Zm0,-6.667c0.014,0 0.022,0.03 0.033,0.022c0.222,-0.156 0.352,-0.409 0.482,-0.689c0.285,-0.611 0.371,-1.331 0.371,-2.138c-0,-0.807 -0.086,-1.527 -0.371,-2.138c-0.109,-0.235 -0.202,-0.455 -0.389,-0.582c-0.035,-0.024 -0.08,0 -0.126,0c-0.074,0 -0.147,-0.007 -0.206,0.032c-0.179,0.12 -0.27,0.328 -0.373,0.55c-0.284,0.611 -0.37,1.331 -0.37,2.138c-0,0.807 0.086,1.527 0.37,2.138c0.124,0.266 0.251,0.507 0.467,0.656c0.032,0.022 0.072,0.011 0.112,0.011Zm-155.349,-19.256l-0,8.088l-2.24,-3.84c0.634,-1.608 1.381,-3.024 2.24,-4.248l-0,-5.053l-11.584,0l-0,46.251l12.16,-0l-0,-22.358c-0,-2.56 0.299,-4.636 0.896,-6.229c0.597,-1.593 1.429,-2.773 2.496,-3.541c1.067,-0.768 2.24,-1.152 3.52,-1.152c1.792,-0 3.189,0.753 4.192,2.261c1.003,1.508 1.504,3.911 1.504,7.211l-0,23.808l12.16,-0l-0,-26.454c-0,-4.778 -0.629,-8.675 -1.888,-11.69c-1.259,-3.015 -2.976,-5.248 -5.152,-6.699c-2.176,-1.451 -4.608,-2.176 -7.296,-2.176c-2.901,0 -5.504,0.839 -7.808,2.517c-1.2,0.874 -2.266,1.976 -3.2,3.304Zm194.325,0l0,8.088l-2.24,-3.84c0.634,-1.608 1.381,-3.024 2.24,-4.248l0,-5.053l-11.584,0l0,46.251l12.16,-0l0,-22.358c0,-2.56 0.299,-4.636 0.896,-6.229c0.598,-1.593 1.43,-2.773 2.496,-3.541c1.067,-0.768 2.24,-1.152 3.52,-1.152c1.792,-0 3.19,0.753 4.192,2.261c1.003,1.508 1.504,3.911 1.504,7.211l0,23.808l12.16,-0l0,-26.454c0,-4.778 -0.629,-8.675 -1.888,-11.69c-1.258,-3.015 -2.976,-5.248 -5.152,-6.699c-2.176,-1.451 -4.608,-2.176 -7.296,-2.176c-2.901,0 -5.504,0.839 -7.808,2.517c-1.199,0.874 -2.266,1.976 -3.2,3.304Zm-76.736,41.198l12.16,-0l0,-46.251l-12.16,0l0,46.251Zm6.08,-51.371c2.262,0 4.064,-0.839 5.408,-2.517c1.344,-1.679 2.016,-3.798 2.016,-6.358c0,-2.446 -0.682,-4.451 -2.048,-6.016c-1.365,-1.564 -3.157,-2.346 -5.376,-2.346c-2.218,-0 -4.01,0.825 -5.376,2.474c-1.365,1.65 -2.048,3.698 -2.048,6.144c0,2.447 0.683,4.495 2.048,6.144c1.366,1.65 3.158,2.475 5.376,2.475Zm-31.168,52.565c4.438,0 8.118,-0.881 11.04,-2.645c2.923,-1.764 5.12,-4.11 6.592,-7.04c1.472,-2.93 2.208,-6.13 2.208,-9.6c0,-3.129 -0.458,-5.732 -1.376,-7.808c-0.917,-2.076 -2.122,-3.755 -3.616,-5.035c-1.493,-1.28 -3.146,-2.304 -4.96,-3.072c-1.813,-0.768 -3.626,-1.408 -5.44,-1.92c-1.813,-0.512 -3.477,-1.009 -4.992,-1.493c-1.514,-0.484 -2.73,-1.109 -3.648,-1.877c-0.917,-0.768 -1.376,-1.807 -1.376,-3.115c0,-1.024 0.235,-1.934 0.704,-2.731c0.47,-0.796 1.238,-1.436 2.304,-1.92c1.067,-0.483 2.475,-0.725 4.224,-0.725c1.963,0 3.99,0.384 6.08,1.152c2.091,0.768 4.203,1.92 6.336,3.456l3.904,-12.544c-2.218,-1.707 -4.746,-3.001 -7.584,-3.883c-2.837,-0.881 -5.728,-1.322 -8.672,-1.322c-4.394,-0 -8.064,0.881 -11.008,2.645c-2.944,1.764 -5.152,4.096 -6.624,6.997c-1.472,2.902 -2.208,6.144 -2.208,9.728c0,3.186 0.47,5.817 1.408,7.894c0.939,2.076 2.155,3.754 3.648,5.034c1.494,1.28 3.147,2.319 4.96,3.115c1.814,0.796 3.627,1.451 5.44,1.963c1.814,0.512 3.467,1.024 4.96,1.536c1.494,0.512 2.71,1.166 3.648,1.962c0.939,0.797 1.408,1.878 1.408,3.243c0,0.967 -0.245,1.806 -0.736,2.517c-0.49,0.711 -1.269,1.28 -2.336,1.707c-1.066,0.427 -2.474,0.64 -4.224,0.64c-2.602,0 -5.216,-0.555 -7.84,-1.664c-2.624,-1.109 -4.938,-2.517 -6.944,-4.224l-4.16,12.459c2.134,1.934 4.896,3.513 8.288,4.736c3.392,1.223 6.923,1.834 10.592,1.834Zm-41.536,-0.426c3.798,-0 7.179,-1.024 10.144,-3.072c2.966,-2.048 5.28,-4.879 6.944,-8.491c1.664,-3.612 2.496,-7.751 2.496,-12.416c0,-4.665 -0.832,-8.789 -2.496,-12.373c-1.664,-3.584 -3.978,-6.386 -6.944,-8.406c-2.965,-2.019 -6.346,-3.029 -10.144,-3.029c-3.797,0 -7.168,1.01 -10.112,3.029c-2.944,2.02 -5.258,4.822 -6.944,8.406c-1.685,3.584 -2.528,7.708 -2.528,12.373c0,4.665 0.843,8.804 2.528,12.416c1.686,3.612 4,6.443 6.944,8.491c2.944,2.048 6.315,3.072 10.112,3.072Zm0,-12.886c-1.365,0 -2.592,-0.426 -3.68,-1.28c-1.088,-0.853 -1.962,-2.119 -2.624,-3.797c-0.661,-1.678 -0.992,-3.684 -0.992,-6.016c0,-2.332 0.331,-4.309 0.992,-5.931c0.662,-1.621 1.536,-2.858 2.624,-3.712c1.088,-0.853 2.315,-1.28 3.68,-1.28c1.408,0 2.656,0.427 3.744,1.28c1.088,0.854 1.952,2.091 2.592,3.712c0.64,1.622 0.96,3.599 0.96,5.931c0,2.332 -0.32,4.338 -0.96,6.016c-0.64,1.678 -1.504,2.944 -2.592,3.797c-1.088,0.854 -2.336,1.28 -3.744,1.28Zm0.018,-7.208c0.029,-0.08 0.058,-0.161 0.089,-0.244c0.387,-1.014 0.523,-2.233 0.523,-3.641c-0,-1.366 -0.12,-2.534 -0.495,-3.483c-0.04,-0.102 -0.077,-0.202 -0.115,-0.297c-0.051,0.116 -0.099,0.24 -0.151,0.367c-0.379,0.93 -0.498,2.075 -0.498,3.413c-0,1.381 0.136,2.578 0.528,3.572c0.042,0.107 0.081,0.212 0.119,0.313Zm-174.695,20.094c3.797,-0 7.179,-1.024 10.144,-3.072c2.965,-2.048 5.28,-4.879 6.944,-8.491c1.664,-3.612 2.496,-7.751 2.496,-12.416c-0,-4.665 -0.832,-8.789 -2.496,-12.373c-1.664,-3.584 -3.979,-6.386 -6.944,-8.406c-2.965,-2.019 -6.347,-3.029 -10.144,-3.029c-3.797,0 -7.168,1.01 -10.112,3.029c-2.944,2.02 -5.259,4.822 -6.944,8.406c-1.685,3.584 -2.528,7.708 -2.528,12.373c-0,4.665 0.843,8.804 2.528,12.416c1.685,3.612 4,6.443 6.944,8.491c2.944,2.048 6.315,3.072 10.112,3.072Zm-0,-12.886c-1.365,0 -2.592,-0.426 -3.68,-1.28c-1.088,-0.853 -1.963,-2.119 -2.624,-3.797c-0.661,-1.678 -0.992,-3.684 -0.992,-6.016c-0,-2.332 0.331,-4.309 0.992,-5.931c0.661,-1.621 1.536,-2.858 2.624,-3.712c1.088,-0.853 2.315,-1.28 3.68,-1.28c1.408,0 2.656,0.427 3.744,1.28c1.088,0.854 1.952,2.091 2.592,3.712c0.64,1.622 0.96,3.599 0.96,5.931c-0,2.332 -0.32,4.338 -0.96,6.016c-0.64,1.678 -1.504,2.944 -2.592,3.797c-1.088,0.854 -2.336,1.28 -3.744,1.28Zm0.018,-7.208c0.028,-0.08 0.057,-0.161 0.089,-0.244c0.386,-1.014 0.522,-2.233 0.522,-3.641c0,-1.366 -0.119,-2.534 -0.494,-3.483c-0.04,-0.102 -0.078,-0.202 -0.116,-0.297c-0.05,0.116 -0.098,0.24 -0.15,0.367c-0.379,0.93 -0.498,2.075 -0.498,3.413c-0,1.381 0.136,2.578 0.527,3.572c0.043,0.107 0.081,0.212 0.12,0.313Zm92.078,19.326l12.16,-0l-0,-46.251l-12.16,0l-0,46.251Zm299.093,-0l12.16,-0l0,-63.318l-12.16,0l0,63.318Zm-293.013,-51.371c2.261,0 4.064,-0.839 5.408,-2.517c1.344,-1.679 2.016,-3.798 2.016,-6.358c-0,-2.446 -0.683,-4.451 -2.048,-6.016c-1.365,-1.564 -3.157,-2.346 -5.376,-2.346c-2.219,-0 -4.011,0.825 -5.376,2.474c-1.365,1.65 -2.048,3.698 -2.048,6.144c-0,2.447 0.683,4.495 2.048,6.144c1.365,1.65 3.157,2.475 5.376,2.475Z" style="fill:#f4f1f9;fill-opacity:0.75;"/></g><g transform="matrix(0.469578,0,0,0.325165,114.041,129.568)"><g transform="matrix(64,0,0,85.3333,238.157,295.93)"><path d="M0.297,0.009c-0.049,-0 -0.094,-0.012 -0.134,-0.035c-0.041,-0.023 -0.073,-0.055 -0.097,-0.097c-0.024,-0.041 -0.036,-0.091 -0.036,-0.149c0,-0.057 0.012,-0.107 0.036,-0.148c0.024,-0.042 0.056,-0.074 0.097,-0.097c0.04,-0.023 0.085,-0.034 0.134,-0.034c0.047,0 0.086,0.01 0.118,0.03c0.033,0.02 0.057,0.051 0.074,0.092c0.017,0.041 0.025,0.094 0.025,0.157c0,0.065 -0.008,0.118 -0.024,0.159c-0.016,0.041 -0.04,0.072 -0.072,0.092c-0.032,0.02 -0.072,0.03 -0.121,0.03Zm0.04,-0.151c0.021,0 0.041,-0.005 0.058,-0.015c0.017,-0.01 0.03,-0.025 0.04,-0.044c0.01,-0.02 0.015,-0.044 0.015,-0.071c0,-0.027 -0.005,-0.05 -0.015,-0.07c-0.01,-0.018 -0.023,-0.033 -0.04,-0.043c-0.017,-0.01 -0.037,-0.015 -0.058,-0.015c-0.022,0 -0.041,0.005 -0.058,0.015c-0.017,0.01 -0.031,0.025 -0.041,0.043c-0.01,0.02 -0.015,0.043 -0.015,0.07c0,0.027 0.005,0.051 0.015,0.071c0.01,0.019 0.024,0.034 0.041,0.044c0.017,0.01 0.036,0.015 0.058,0.015Zm0.119,0.142l0,-0.093l0.001,-0.179l-0.01,-0.179l0,-0.291l0.19,0l0,0.742l-0.181,-0Z" style="fill-rule:nonzero;"/></g><g transform="matrix(64,0,0,85.3333,282.829,295.93)"><path d="M0.333,0.009c-0.059,-0 -0.112,-0.012 -0.158,-0.036c-0.046,-0.024 -0.082,-0.057 -0.109,-0.1c-0.026,-0.042 -0.039,-0.09 -0.039,-0.145c-0,-0.055 0.013,-0.103 0.039,-0.145c0.027,-0.042 0.063,-0.075 0.109,-0.098c0.046,-0.024 0.099,-0.036 0.158,-0.036c0.059,0 0.112,0.012 0.158,0.036c0.047,0.023 0.083,0.056 0.109,0.098c0.026,0.042 0.039,0.09 0.039,0.145c0,0.055 -0.013,0.103 -0.039,0.146c-0.026,0.042 -0.062,0.075 -0.108,0.099c-0.047,0.024 -0.1,0.036 -0.159,0.036Zm0,-0.151c0.022,0 0.042,-0.005 0.059,-0.015c0.017,-0.01 0.03,-0.025 0.04,-0.044c0.01,-0.02 0.015,-0.044 0.015,-0.071c0,-0.027 -0.005,-0.05 -0.015,-0.07c-0.01,-0.018 -0.023,-0.033 -0.04,-0.043c-0.017,-0.01 -0.037,-0.015 -0.059,-0.015c-0.021,0 -0.04,0.005 -0.057,0.015c-0.017,0.01 -0.031,0.025 -0.041,0.043c-0.011,0.02 -0.016,0.043 -0.016,0.07c0,0.027 0.005,0.051 0.016,0.071c0.01,0.019 0.024,0.034 0.041,0.044c0.017,0.01 0.036,0.015 0.057,0.015Z" style="fill-rule:nonzero;"/></g><g transform="matrix(64,0,0,85.3333,325.453,295.93)"><path d="M0.767,-0.551c0.042,0 0.08,0.009 0.112,0.026c0.033,0.017 0.059,0.043 0.079,0.078c0.019,0.035 0.028,0.081 0.028,0.137l0,0.31l-0.19,-0l0,-0.279c0,-0.039 -0.007,-0.067 -0.022,-0.084c-0.015,-0.018 -0.035,-0.027 -0.06,-0.027c-0.018,0 -0.034,0.004 -0.049,0.013c-0.015,0.009 -0.026,0.022 -0.034,0.04c-0.008,0.017 -0.012,0.04 -0.012,0.068l0,0.269l-0.19,0l0,-0.279c0,-0.039 -0.007,-0.067 -0.021,-0.084c-0.015,-0.018 -0.035,-0.027 -0.061,-0.027c-0.019,0 -0.035,0.004 -0.049,0.013c-0.015,0.009 -0.026,0.022 -0.034,0.04c-0.009,0.017 -0.013,0.04 -0.013,0.068l0,0.269l-0.19,0l0,-0.542l0.181,0l0,0.151l-0.036,-0.043c0.02,-0.039 0.047,-0.068 0.082,-0.087c0.035,-0.02 0.073,-0.03 0.116,-0.03c0.049,0 0.092,0.013 0.129,0.038c0.037,0.025 0.061,0.063 0.074,0.116l-0.062,-0.013c0.019,-0.044 0.049,-0.078 0.088,-0.103c0.039,-0.025 0.083,-0.038 0.134,-0.038Z" style="fill-rule:nonzero;"/></g><g transform="matrix(64,0,0,85.3333,392.333,295.93)"><path d="M0.061,-0l0,-0.542l0.19,0l0,0.542l-0.19,-0Zm0.095,-0.602c-0.035,0 -0.063,-0.01 -0.084,-0.029c-0.021,-0.019 -0.032,-0.043 -0.032,-0.072c0,-0.029 0.011,-0.053 0.032,-0.072c0.021,-0.019 0.049,-0.029 0.084,-0.029c0.035,0 0.063,0.009 0.084,0.028c0.021,0.018 0.032,0.041 0.032,0.07c0,0.03 -0.011,0.055 -0.032,0.075c-0.021,0.019 -0.049,0.029 -0.084,0.029Z" style="fill-rule:nonzero;"/></g><g transform="matrix(64,0,0,85.3333,412.365,295.93)"><path d="M0.414,-0.551c0.042,0 0.08,0.009 0.114,0.026c0.034,0.017 0.061,0.043 0.081,0.078c0.019,0.035 0.029,0.081 0.029,0.137l0,0.31l-0.19,-0l0,-0.279c0,-0.039 -0.008,-0.067 -0.024,-0.084c-0.015,-0.018 -0.037,-0.027 -0.065,-0.027c-0.02,0 -0.038,0.005 -0.055,0.014c-0.017,0.009 -0.03,0.022 -0.039,0.041c-0.009,0.019 -0.014,0.043 -0.014,0.073l0,0.262l-0.19,0l0,-0.542l0.181,0l0,0.154l-0.035,-0.045c0.021,-0.039 0.049,-0.069 0.085,-0.088c0.036,-0.02 0.077,-0.03 0.122,-0.03Z" style="fill-rule:nonzero;"/></g><g transform="matrix(64,0,0,85.3333,457.506,295.93)"><path d="M0.333,0.009c-0.059,-0 -0.112,-0.012 -0.158,-0.036c-0.046,-0.024 -0.082,-0.057 -0.109,-0.1c-0.026,-0.042 -0.039,-0.09 -0.039,-0.145c-0,-0.055 0.013,-0.103 0.039,-0.145c0.027,-0.042 0.063,-0.075 0.109,-0.098c0.046,-0.024 0.099,-0.036 0.158,-0.036c0.059,0 0.112,0.012 0.158,0.036c0.047,0.023 0.083,0.056 0.109,0.098c0.026,0.042 0.039,0.09 0.039,0.145c0,0.055 -0.013,0.103 -0.039,0.146c-0.026,0.042 -0.062,0.075 -0.108,0.099c-0.047,0.024 -0.1,0.036 -0.159,0.036Zm0,-0.151c0.022,0 0.042,-0.005 0.059,-0.015c0.017,-0.01 0.03,-0.025 0.04,-0.044c0.01,-0.02 0.015,-0.044 0.015,-0.071c0,-0.027 -0.005,-0.05 -0.015,-0.07c-0.01,-0.018 -0.023,-0.033 -0.04,-0.043c-0.017,-0.01 -0.037,-0.015 -0.059,-0.015c-0.021,0 -0.04,0.005 -0.057,0.015c-0.017,0.01 -0.031,0.025 -0.041,0.043c-0.011,0.02 -0.016,0.043 -0.016,0.07c0,0.027 0.005,0.051 0.016,0.071c0.01,0.019 0.024,0.034 0.041,0.044c0.017,0.01 0.036,0.015 0.057,0.015Z" style="fill-rule:nonzero;"/></g><g transform="matrix(64,0,0,85.3333,500.13,295.93)"><path d="M0.316,0.014c-0.057,-0 -0.113,-0.007 -0.166,-0.021c-0.052,-0.015 -0.096,-0.033 -0.129,-0.056l0.065,-0.146c0.031,0.02 0.068,0.037 0.109,0.049c0.04,0.013 0.081,0.02 0.122,0.02c0.027,-0 0.049,-0.003 0.066,-0.008c0.017,-0.005 0.029,-0.011 0.036,-0.02c0.008,-0.008 0.012,-0.018 0.012,-0.029c-0,-0.016 -0.007,-0.029 -0.022,-0.038c-0.015,-0.009 -0.034,-0.017 -0.057,-0.023c-0.023,-0.006 -0.049,-0.012 -0.078,-0.018c-0.028,-0.006 -0.056,-0.014 -0.085,-0.023c-0.028,-0.009 -0.054,-0.021 -0.077,-0.036c-0.023,-0.015 -0.042,-0.035 -0.057,-0.059c-0.015,-0.025 -0.022,-0.056 -0.022,-0.093c0,-0.042 0.011,-0.08 0.035,-0.114c0.022,-0.034 0.057,-0.061 0.103,-0.082c0.046,-0.021 0.103,-0.031 0.172,-0.031c0.046,0 0.091,0.005 0.135,0.016c0.045,0.01 0.084,0.025 0.119,0.045l-0.061,0.147c-0.033,-0.018 -0.066,-0.031 -0.099,-0.04c-0.033,-0.009 -0.064,-0.014 -0.095,-0.014c-0.027,0 -0.049,0.003 -0.066,0.009c-0.017,0.005 -0.029,0.013 -0.036,0.022c-0.007,0.009 -0.011,0.02 -0.011,0.032c-0,0.015 0.007,0.028 0.021,0.036c0.015,0.009 0.034,0.017 0.057,0.022c0.024,0.006 0.05,0.012 0.078,0.018c0.029,0.006 0.057,0.013 0.085,0.022c0.029,0.009 0.055,0.021 0.078,0.036c0.023,0.015 0.042,0.035 0.056,0.059c0.015,0.025 0.022,0.055 0.022,0.092c-0,0.041 -0.012,0.078 -0.035,0.112c-0.023,0.035 -0.057,0.062 -0.103,0.083c-0.045,0.021 -0.103,0.031 -0.172,0.031Z" style="fill-rule:nonzero;"/></g><g transform="matrix(64,0,0,85.3333,541.538,295.93)"><path d="M0.061,-0l0,-0.542l0.19,0l0,0.542l-0.19,-0Zm0.095,-0.602c-0.035,0 -0.063,-0.01 -0.084,-0.029c-0.021,-0.019 -0.032,-0.043 -0.032,-0.072c0,-0.029 0.011,-0.053 0.032,-0.072c0.021,-0.019 0.049,-0.029 0.084,-0.029c0.035,0 0.063,0.009 0.084,0.028c0.021,0.018 0.032,0.041 0.032,0.07c0,0.03 -0.011,0.055 -0.032,0.075c-0.021,0.019 -0.049,0.029 -0.084,0.029Z" style="fill-rule:nonzero;"/></g><g transform="matrix(64,0,0,85.3333,561.57,295.93)"><path d="M0.326,0.203c-0.052,-0 -0.102,-0.006 -0.149,-0.018c-0.047,-0.012 -0.087,-0.03 -0.12,-0.053l0.069,-0.133c0.023,0.018 0.051,0.032 0.084,0.042c0.034,0.011 0.067,0.016 0.099,0.016c0.051,-0 0.088,-0.011 0.111,-0.034c0.023,-0.022 0.034,-0.054 0.034,-0.097l-0,-0.064l0.01,-0.152l-0.001,-0.153l-0,-0.099l0.181,0l-0,0.443c-0,0.103 -0.028,0.179 -0.083,0.228c-0.055,0.049 -0.134,0.074 -0.235,0.074Zm-0.033,-0.231c-0.048,0 -0.092,-0.011 -0.133,-0.032c-0.04,-0.022 -0.072,-0.052 -0.097,-0.091c-0.024,-0.039 -0.036,-0.086 -0.036,-0.139c-0,-0.053 0.012,-0.099 0.036,-0.138c0.025,-0.039 0.057,-0.07 0.097,-0.091c0.041,-0.021 0.085,-0.032 0.133,-0.032c0.046,0 0.085,0.009 0.118,0.028c0.033,0.018 0.057,0.046 0.074,0.085c0.017,0.039 0.026,0.088 0.026,0.148c-0,0.06 -0.009,0.109 -0.026,0.148c-0.017,0.039 -0.041,0.067 -0.074,0.086c-0.033,0.019 -0.072,0.028 -0.118,0.028Zm0.045,-0.151c0.023,0 0.043,-0.005 0.06,-0.014c0.018,-0.009 0.032,-0.022 0.042,-0.039c0.011,-0.017 0.016,-0.036 0.016,-0.058c-0,-0.022 -0.005,-0.041 -0.016,-0.058c-0.01,-0.017 -0.024,-0.029 -0.042,-0.038c-0.017,-0.01 -0.037,-0.014 -0.06,-0.014c-0.023,0 -0.043,0.005 -0.061,0.014c-0.018,0.009 -0.032,0.021 -0.043,0.038c-0.01,0.017 -0.015,0.036 -0.015,0.058c-0,0.022 0.005,0.041 0.015,0.058c0.011,0.017 0.025,0.03 0.043,0.039c0.018,0.009 0.038,0.014 0.061,0.014Z" style="fill-rule:nonzero;"/></g><g transform="matrix(64,0,0,85.3333,606.69,295.93)"><path d="M0.414,-0.551c0.042,0 0.08,0.009 0.114,0.026c0.034,0.017 0.061,0.043 0.081,0.078c0.019,0.035 0.029,0.081 0.029,0.137l0,0.31l-0.19,-0l0,-0.279c0,-0.039 -0.008,-0.067 -0.024,-0.084c-0.015,-0.018 -0.037,-0.027 -0.065,-0.027c-0.02,0 -0.038,0.005 -0.055,0.014c-0.017,0.009 -0.03,0.022 -0.039,0.041c-0.009,0.019 -0.014,0.043 -0.014,0.073l0,0.262l-0.19,0l0,-0.542l0.181,0l0,0.154l-0.035,-0.045c0.021,-0.039 0.049,-0.069 0.085,-0.088c0.036,-0.02 0.077,-0.03 0.122,-0.03Z" style="fill-rule:nonzero;"/></g><g transform="matrix(64,0,0,85.3333,651.234,295.93)"><path d="M0.392,-0l0,-0.101l-0.013,-0.025l0,-0.186c0,-0.03 -0.009,-0.053 -0.028,-0.07c-0.018,-0.016 -0.047,-0.024 -0.087,-0.024c-0.026,0 -0.052,0.004 -0.079,0.013c-0.027,0.008 -0.049,0.019 -0.068,0.034l-0.064,-0.129c0.031,-0.02 0.068,-0.035 0.111,-0.046c0.043,-0.011 0.085,-0.017 0.128,-0.017c0.088,0 0.156,0.02 0.205,0.061c0.048,0.04 0.072,0.103 0.072,0.189l0,0.301l-0.177,0Zm-0.16,0.009c-0.043,-0 -0.08,-0.007 -0.11,-0.022c-0.03,-0.015 -0.053,-0.035 -0.068,-0.06c-0.016,-0.025 -0.024,-0.054 -0.024,-0.085c0,-0.033 0.009,-0.062 0.026,-0.086c0.017,-0.025 0.043,-0.043 0.078,-0.056c0.035,-0.013 0.081,-0.02 0.137,-0.02l0.128,0l0,0.099l-0.102,0c-0.031,0 -0.052,0.005 -0.064,0.015c-0.013,0.01 -0.019,0.023 -0.019,0.04c0,0.017 0.006,0.03 0.019,0.04c0.013,0.01 0.03,0.015 0.052,0.015c0.021,0 0.04,-0.005 0.057,-0.015c0.017,-0.011 0.029,-0.027 0.037,-0.048l0.026,0.07c-0.01,0.037 -0.029,0.066 -0.058,0.085c-0.029,0.019 -0.068,0.028 -0.115,0.028Z" style="fill-rule:nonzero;"/></g><g transform="matrix(64,0,0,85.3333,691.426,295.93)"><rect x="0.061" y="-0.742" width="0.19" height="0.742" style="fill-rule:nonzero;"/></g></g></g></g></g><path d="M1082.53,0l1082.53,625l-0,1250l-1082.53,625l-1082.53,-625l-0,-1250l1082.53,-625Zm-0,96.225c-0,0 -999.199,576.887 -999.199,576.888c0,223.989 0,1153.77 0,1153.78c0,-0 999.199,576.887 999.199,576.887c-0,-0 999.198,-576.888 999.198,-576.888c0,-223.989 0,-1153.77 0,-1153.78l-999.198,-576.887Z" style="fill:#4be1ce;"/></svg>
